<svg width="1208" height="258" viewBox="0 0 1208 258" fill="none" xmlns="http://www.w3.org/2000/svg">
<path d="M228.298 230.88C221.244 230.88 214.871 229.69 209.177 227.311C203.483 224.846 198.597 221.489 194.518 217.24C190.524 212.991 187.422 208.062 185.212 202.453C183.003 196.845 181.898 190.853 181.898 184.48C181.898 178.191 183.003 172.243 185.212 166.634C187.422 161.025 190.524 156.096 194.518 151.847C198.597 147.598 203.483 144.284 209.177 141.904C214.871 139.525 221.244 138.335 228.298 138.335C235.351 138.335 241.725 139.525 247.419 141.904C253.112 144.284 257.956 147.598 261.951 151.847C266.03 156.096 269.174 161.025 271.383 166.634C273.593 172.243 274.698 178.234 274.698 184.607C274.698 190.896 273.593 196.845 271.383 202.453C269.174 208.062 266.03 212.991 261.951 217.24C257.956 221.489 253.112 224.846 247.419 227.311C241.725 229.69 235.351 230.88 228.298 230.88ZM228.298 220.045C233.142 220.045 237.646 219.152 241.81 217.368C245.974 215.583 249.586 213.076 252.645 209.847C255.789 206.618 258.211 202.878 259.911 198.629C261.611 194.295 262.46 189.579 262.46 184.48C262.46 179.466 261.611 174.792 259.911 170.458C258.211 166.124 255.832 162.385 252.773 159.24C249.713 156.011 246.059 153.547 241.81 151.847C237.646 150.062 233.142 149.17 228.298 149.17C223.369 149.17 218.822 150.062 214.658 151.847C210.494 153.547 206.882 156.011 203.823 159.24C200.764 162.385 198.384 166.124 196.685 170.458C194.985 174.792 194.135 179.508 194.135 184.607C194.135 189.621 194.985 194.295 196.685 198.629C198.384 202.878 200.764 206.618 203.823 209.847C206.882 213.076 210.494 215.583 214.658 217.368C218.822 219.152 223.369 220.045 228.298 220.045ZM304.975 229.223V139.992H344.109C349.718 139.992 354.817 141.224 359.406 143.689C363.995 146.068 367.649 149.467 370.369 153.887C373.088 158.221 374.448 163.319 374.448 169.183C374.448 175.132 372.918 180.401 369.859 184.99C366.884 189.494 362.848 192.851 357.749 195.06L367.309 214.436C367.989 215.796 368.712 216.815 369.476 217.495C370.326 218.09 371.516 218.388 373.046 218.388H379.419V229.223H371.134C367.819 229.223 364.887 228.373 362.338 226.673C359.873 224.974 357.834 222.679 356.219 219.79L345.512 197.992C344.662 198.077 343.727 198.162 342.707 198.247C341.772 198.247 340.795 198.247 339.775 198.247H317.213V229.223H304.975ZM317.213 187.412H342.452C346.106 187.412 349.421 186.689 352.395 185.245C355.454 183.8 357.834 181.718 359.534 178.999C361.318 176.279 362.21 173.007 362.21 169.183C362.21 165.274 361.318 161.96 359.534 159.24C357.749 156.521 355.369 154.439 352.395 152.994C349.421 151.55 346.149 150.827 342.58 150.827H317.213V187.412ZM472.568 257.267C468.319 257.267 464.537 256.417 461.223 254.717C457.993 253.102 455.444 250.68 453.574 247.451C451.705 244.222 450.77 240.355 450.77 235.851C450.77 234.746 450.812 233.599 450.897 232.409C450.982 231.305 451.11 230.157 451.28 228.968C444.311 229.393 437.853 228.585 431.904 226.546C425.955 224.506 420.771 221.489 416.352 217.495C411.933 213.416 408.492 208.53 406.027 202.836C403.563 197.057 402.33 190.726 402.33 183.843C402.33 177.554 403.393 171.69 405.517 166.251C407.642 160.728 410.701 155.884 414.695 151.719C418.689 147.555 423.491 144.326 429.1 142.032C434.793 139.652 441.082 138.462 447.965 138.462C454.849 138.462 461.095 139.61 466.704 141.904C472.313 144.199 477.114 147.428 481.108 151.592C485.102 155.671 488.162 160.388 490.286 165.741C492.496 171.095 493.601 176.874 493.601 183.078V234.449C493.601 239.038 492.751 243.032 491.051 246.431C489.351 249.916 486.93 252.593 483.785 254.462C480.726 256.332 476.987 257.267 472.568 257.267ZM471.803 246.304C474.607 246.304 476.902 245.284 478.686 243.245C480.471 241.29 481.363 238.443 481.363 234.704V204.366C477.624 206.575 474.522 208.955 472.058 211.504C469.593 213.968 467.639 216.518 466.194 219.152C464.834 221.702 463.857 224.294 463.262 226.928C462.667 229.478 462.37 232.027 462.37 234.576C462.37 237.041 462.795 239.123 463.645 240.823C464.579 242.607 465.769 243.967 467.214 244.902C468.658 245.837 470.188 246.304 471.803 246.304ZM447.965 218.515C449.325 218.515 450.6 218.472 451.79 218.388C452.979 218.218 454.254 217.963 455.614 217.623C456.804 214.733 458.461 211.801 460.585 208.827C462.795 205.853 465.557 202.921 468.871 200.031C472.27 197.057 476.434 194.295 481.363 191.746V183.078C481.363 178.234 480.513 173.772 478.814 169.693C477.199 165.529 474.862 161.96 471.803 158.985C468.828 155.926 465.302 153.547 461.223 151.847C457.143 150.062 452.724 149.17 447.965 149.17C443.122 149.17 438.66 150.062 434.581 151.847C430.587 153.547 427.06 155.969 424.001 159.113C421.026 162.257 418.689 165.954 416.99 170.203C415.375 174.367 414.568 178.914 414.568 183.843C414.568 188.771 415.375 193.36 416.99 197.61C418.689 201.774 421.026 205.428 424.001 208.572C427.06 211.716 430.587 214.181 434.581 215.966C438.66 217.665 443.122 218.515 447.965 218.515ZM517.344 229.223L547.683 148.533C549.042 145.048 550.912 142.499 553.291 140.884C555.671 139.27 558.433 138.462 561.577 138.462C564.721 138.462 567.483 139.27 569.863 140.884C572.327 142.414 574.197 144.921 575.472 148.405L605.938 229.223H592.553L584.777 207.68H538.122L530.219 229.223H517.344ZM541.946 196.845H581.08L565.146 152.612C564.721 151.507 564.254 150.657 563.744 150.062C563.234 149.467 562.512 149.17 561.577 149.17C560.727 149.17 560.047 149.467 559.538 150.062C559.028 150.657 558.603 151.507 558.263 152.612L541.946 196.845ZM689.122 230.752C684.363 230.752 680.157 229.69 676.502 227.566C672.933 225.356 670.129 222.382 668.089 218.642C666.05 214.903 665.03 210.697 665.03 206.023V161.535C665.03 159.24 664.478 157.158 663.373 155.289C662.268 153.419 660.781 151.932 658.911 150.827C657.042 149.722 655.002 149.17 652.793 149.17C650.583 149.17 648.543 149.722 646.674 150.827C644.889 151.932 643.445 153.419 642.34 155.289C641.32 157.158 640.81 159.24 640.81 161.535V229.223H628.573V163.192C628.573 158.518 629.593 154.311 631.632 150.572C633.672 146.833 636.519 143.901 640.173 141.777C643.827 139.567 648.034 138.462 652.793 138.462C657.636 138.462 661.886 139.567 665.54 141.777C669.194 143.901 672.041 146.833 674.08 150.572C676.12 154.311 677.14 158.518 677.14 163.192V207.68C677.14 209.974 677.692 212.056 678.797 213.926C679.902 215.796 681.346 217.283 683.131 218.388C685.001 219.492 686.998 220.045 689.122 220.045C691.247 220.045 693.201 219.492 694.986 218.388C696.77 217.283 698.173 215.796 699.192 213.926C700.297 212.056 700.85 209.974 700.85 207.68V139.992H713.087V206.023C713.087 210.697 712.067 214.903 710.028 218.642C707.988 222.382 705.184 225.356 701.614 227.566C698.045 229.69 693.881 230.752 689.122 230.752ZM743.901 229.223V218.388H761.11V150.827H743.901V139.992H790.429V150.827H773.347V218.388H790.429V229.223H743.901ZM836.287 229.223C830.763 229.223 826.387 227.566 823.157 224.251C819.928 220.852 818.313 216.688 818.313 211.759C818.313 208.615 818.951 205.938 820.225 203.728C821.5 201.519 823.582 199.224 826.472 196.845L866.88 163.447C868.325 162.342 869.345 161.322 869.94 160.388C870.534 159.453 870.832 158.306 870.832 156.946C870.832 155.926 870.534 154.949 869.94 154.014C869.345 153.079 868.58 152.314 867.645 151.719C866.795 151.125 865.818 150.827 864.713 150.827H821.118V139.992H865.861C869.515 139.992 872.659 140.757 875.293 142.287C878.013 143.816 880.052 145.898 881.412 148.533C882.857 151.082 883.579 153.972 883.579 157.201C883.579 160.345 882.899 163.15 881.54 165.614C880.265 167.993 878.268 170.288 875.548 172.497L835.14 205.768C834.12 206.533 833.27 207.212 832.59 207.807C831.995 208.402 831.57 209.04 831.316 209.719C831.146 210.314 831.061 211.122 831.061 212.141C831.061 213.161 831.316 214.181 831.825 215.201C832.42 216.135 833.185 216.9 834.12 217.495C835.14 218.09 836.287 218.388 837.562 218.388H883.579V229.223H836.287ZM899.203 229.223L929.542 148.533C930.902 145.048 932.771 142.499 935.151 140.884C937.53 139.27 940.292 138.462 943.436 138.462C946.581 138.462 949.343 139.27 951.722 140.884C954.187 142.414 956.056 144.921 957.331 148.405L987.797 229.223H974.412L966.636 207.68H919.981L912.078 229.223H899.203ZM923.806 196.845H962.94L947.006 152.612C946.581 151.507 946.113 150.657 945.603 150.062C945.094 149.467 944.371 149.17 943.436 149.17C942.587 149.17 941.907 149.467 941.397 150.062C940.887 150.657 940.462 151.507 940.122 152.612L923.806 196.845ZM1048.98 229.223C1042.18 229.223 1035.97 228.075 1030.37 225.781C1024.76 223.401 1019.91 220.172 1015.83 216.093C1011.84 212.014 1008.74 207.297 1006.53 201.944C1004.4 196.505 1003.34 190.726 1003.34 184.607C1003.34 178.489 1004.4 172.752 1006.53 167.399C1008.74 161.96 1011.84 157.201 1015.83 153.122C1019.91 149.043 1024.76 145.856 1030.37 143.561C1035.97 141.182 1042.18 139.992 1048.98 139.992H1060.45V150.827H1049.36C1044.51 150.827 1040.05 151.677 1035.97 153.377C1031.9 155.076 1028.33 157.456 1025.27 160.515C1022.29 163.574 1019.96 167.144 1018.26 171.223C1016.56 175.302 1015.71 179.763 1015.71 184.607C1015.71 189.366 1016.56 193.828 1018.26 197.992C1019.96 202.071 1022.29 205.64 1025.27 208.7C1028.33 211.759 1031.9 214.138 1035.97 215.838C1040.05 217.538 1044.51 218.388 1049.36 218.388H1060.45V229.223H1048.98ZM1102.73 256.884C1098.56 256.884 1094.87 256.119 1091.64 254.59C1088.49 253.06 1086.03 250.765 1084.24 247.706C1082.46 244.647 1081.57 240.908 1081.57 236.489C1081.57 232.494 1082.37 228.118 1083.99 223.359C1085.6 218.6 1088.54 213.629 1092.79 208.445C1097.03 203.261 1103.15 198.119 1111.14 193.021V150.827H1091.89V139.992H1123.25V234.449C1123.25 239.038 1122.4 242.99 1120.7 246.304C1119.09 249.703 1116.75 252.295 1113.69 254.08C1110.63 255.949 1106.98 256.884 1102.73 256.884ZM1101.84 245.922C1103.62 245.922 1105.19 245.497 1106.55 244.647C1108 243.882 1109.1 242.65 1109.87 240.95C1110.63 239.25 1111.01 237.168 1111.01 234.704V205.64C1106.34 209.125 1102.69 212.566 1100.05 215.966C1097.42 219.28 1095.59 222.552 1094.57 225.781C1093.55 228.925 1093.04 232.07 1093.04 235.214C1093.04 238.783 1093.93 241.46 1095.72 243.245C1097.5 245.029 1099.54 245.922 1101.84 245.922ZM1154.88 229.223V218.388H1172.08V150.827H1154.88V139.992H1201.4V150.827H1184.32V218.388H1201.4V229.223H1154.88Z" fill="white"/>
<mask id="path-2-outside-1_427_176" maskUnits="userSpaceOnUse" x="3" y="12.7305" width="573" height="99" fill="black">
<rect fill="white" x="3" y="12.7305" width="573" height="99"/>
<path d="M9.61609 106.73V93.3459H47.9853C50.4497 93.3459 52.5743 92.751 54.3589 91.5613C56.2285 90.3715 57.6731 88.8419 58.6929 86.9723C59.7977 85.0177 60.3501 82.9781 60.3501 80.8536C60.3501 78.5591 59.8402 76.477 58.8204 74.6074C57.8006 72.7379 56.3559 71.2507 54.4863 70.1459C52.7017 69.0412 50.6197 68.4888 48.2402 68.4888H32.3062C27.2922 68.4888 22.7882 67.469 18.7941 65.4294C14.8849 63.3049 11.7831 60.373 9.48861 56.6339C7.19411 52.8947 6.04686 48.4756 6.04686 43.3767C6.04686 38.2778 7.15162 33.8163 9.36114 29.9921C11.5707 26.083 14.5875 23.0237 18.4117 20.8141C22.2358 18.6046 26.5699 17.4998 31.4139 17.4998H69.783V30.8844H32.816C30.6065 30.8844 28.6095 31.4368 26.8248 32.5416C25.0402 33.6463 23.638 35.091 22.6183 36.8756C21.6835 38.6603 21.2161 40.5723 21.2161 42.6119C21.2161 44.7364 21.6835 46.691 22.6183 48.4756C23.638 50.1753 24.9977 51.5774 26.6974 52.6822C28.482 53.702 30.4791 54.2119 32.6886 54.2119H49.005C54.4439 54.2119 59.1178 55.2741 63.027 57.3987C67.0211 59.5232 70.0805 62.4551 72.205 66.1943C74.4145 69.9335 75.5193 74.225 75.5193 79.069C75.5193 84.7627 74.372 89.6917 72.0775 93.8558C69.868 97.9349 66.8087 101.122 62.8995 103.416C59.0753 105.626 54.7413 106.73 49.8973 106.73H9.61609ZM119.491 106.73C113.882 106.73 109.378 105.031 105.979 101.632C102.665 98.1473 101.008 93.7708 101.008 88.5019C101.008 85.6126 101.56 83.0206 102.665 80.7261C103.855 78.4316 105.767 76.1796 108.401 73.9701L148.81 39.2976C149.66 38.6178 150.255 37.9804 150.594 37.3855C150.934 36.7907 151.104 36.0683 151.104 35.2185C151.104 34.5387 150.892 33.8588 150.467 33.1789C150.042 32.4991 149.532 31.9467 148.937 31.5218C148.342 31.0969 147.62 30.8844 146.77 30.8844H103.43V17.4998H148.682C152.507 17.4998 155.778 18.3072 158.498 19.9218C161.217 21.4515 163.342 23.576 164.871 26.2954C166.401 29.0148 167.166 32.1167 167.166 35.6009C167.166 38.4903 166.571 41.1672 165.381 43.6317C164.192 46.0112 162.364 48.2207 159.9 50.2602L119.364 84.9327C118.769 85.3576 118.259 85.7825 117.834 86.2074C117.494 86.6323 117.239 87.0572 117.069 87.4821C116.984 87.8221 116.942 88.332 116.942 89.0118C116.942 89.6917 117.112 90.3715 117.452 91.0514C117.877 91.7312 118.429 92.2836 119.109 92.7085C119.789 93.1334 120.554 93.3459 121.403 93.3459H167.421V106.73H119.491ZM241.669 106.73C236.656 106.73 232.279 105.626 228.54 103.416C224.801 101.122 221.869 98.0624 219.744 94.2382C217.705 90.414 216.685 86.1649 216.685 81.491V30.8844H190.681V17.4998H257.858V30.8844H231.854V83.403C231.854 86.1224 232.789 88.4594 234.658 90.414C236.528 92.3686 238.908 93.3459 241.797 93.3459H247.916V106.73H241.669ZM320.63 108.26C313.576 108.26 307.33 106.815 301.891 103.926C296.452 100.952 292.161 96.7451 289.016 91.3063C285.957 85.8675 284.427 79.3664 284.427 71.8031V17.4998H299.597V73.0778C299.597 76.9869 300.446 80.5986 302.146 83.9129C303.931 87.2272 306.395 89.9041 309.539 91.9437C312.684 93.8983 316.423 94.8755 320.757 94.8755C325.091 94.8755 328.788 93.8983 331.847 91.9437C334.991 89.9041 337.413 87.2272 339.113 83.9129C340.813 80.5986 341.663 76.9869 341.663 73.0778V17.4998H356.959V71.8031C356.959 79.3664 355.387 85.8675 352.243 91.3063C349.098 96.7451 344.807 100.952 339.368 103.926C333.929 106.815 327.683 108.26 320.63 108.26ZM390.361 106.73V17.4998H405.53V56.124H425.671C428.9 56.124 431.832 55.5291 434.466 54.3393C437.186 53.0646 439.31 51.2375 440.84 48.858C442.455 46.4786 443.262 43.6317 443.262 40.3174V17.4998H458.431V40.1899C458.431 46.0537 456.986 51.195 454.097 55.6141C451.208 60.0331 447.384 63.4749 442.625 65.9393L453.842 90.414C454.267 91.4338 454.819 92.1561 455.499 92.581C456.179 93.0059 457.071 93.2184 458.176 93.2184H465.697V106.73H455.882C451.888 106.73 448.573 105.881 445.939 104.181C443.389 102.481 441.435 100.144 440.075 97.17L427.328 69.3811C426.393 69.4661 425.501 69.551 424.651 69.636C423.801 69.636 422.866 69.636 421.847 69.636H405.53V106.73H390.361ZM481.129 106.73L510.83 26.6779C512.275 23.0237 514.357 20.3467 517.076 18.6471C519.796 16.8625 522.898 15.9702 526.382 15.9702C529.951 15.9702 533.095 16.82 535.815 18.5196C538.619 20.2193 540.701 22.8962 542.061 26.5504L571.889 106.73H555.191L548.307 86.9723H504.202L497.063 106.73H481.129ZM508.791 73.4602H543.718L529.441 31.7768C529.101 30.9269 528.676 30.2896 528.166 29.8647C527.742 29.4398 527.189 29.2273 526.509 29.2273C525.829 29.2273 525.277 29.4822 524.852 29.9921C524.427 30.417 524.087 31.0119 523.832 31.7768L508.791 73.4602Z"/>
</mask>
<path d="M9.61609 106.73H6.79531V109.551H9.61609V106.73ZM9.61609 93.3459V90.5251H6.79531V93.3459H9.61609ZM54.3589 91.5613L52.8445 89.1815L52.8191 89.1976L52.7942 89.2142L54.3589 91.5613ZM58.6929 86.9723L56.2373 85.5843L56.2268 85.6028L56.2166 85.6215L58.6929 86.9723ZM58.8204 74.6074L56.344 75.9582L58.8204 74.6074ZM54.4863 70.1459L53.0016 72.5443L53.0263 72.5596L53.0513 72.5744L54.4863 70.1459ZM18.7941 65.4294L17.4471 67.9079L17.479 67.9252L17.5113 67.9416L18.7941 65.4294ZM9.48861 56.6339L7.0844 58.1092L9.48861 56.6339ZM9.36114 29.9921L11.8036 31.4033L11.8102 31.3917L11.8168 31.3801L9.36114 29.9921ZM18.4117 20.8141L17.0005 18.3717L18.4117 20.8141ZM69.783 17.4998H72.6038V14.6791H69.783V17.4998ZM69.783 30.8844V33.7052H72.6038V30.8844H69.783ZM26.8248 32.5416L28.3096 34.94L26.8248 32.5416ZM22.6183 36.8756L20.1691 35.4761L20.1435 35.521L20.1195 35.5668L22.6183 36.8756ZM22.6183 48.4756L20.1195 49.7845L20.1574 49.8568L20.1995 49.9269L22.6183 48.4756ZM26.6974 52.6822L25.1601 55.0473L25.2278 55.0913L25.2979 55.1313L26.6974 52.6822ZM63.027 57.3987L61.68 59.8771L61.6911 59.8831L61.7023 59.8891L63.027 57.3987ZM72.205 66.1943L69.7524 67.5878L69.7643 67.6086L69.7765 67.6293L72.205 66.1943ZM72.0775 93.8558L69.607 92.4944L69.6021 92.5033L69.5972 92.5123L72.0775 93.8558ZM62.8995 103.416L64.3107 105.859L64.3191 105.854L64.3274 105.849L62.8995 103.416ZM9.61609 106.73H12.4369V93.3459H9.61609H6.79531V106.73H9.61609ZM9.61609 93.3459V96.1667H47.9852V93.3459V90.5251H9.61609V93.3459ZM47.9852 93.3459V96.1667C50.9213 96.1667 53.6093 95.4511 55.9236 93.9083L54.3589 91.5613L52.7942 89.2142C51.5392 90.0509 49.9782 90.5251 47.9852 90.5251V93.3459ZM54.3589 91.5613L55.8733 93.941C58.1284 92.506 59.9116 90.6287 61.1693 88.323L58.6929 86.9723L56.2166 85.6215C55.4347 87.055 54.3285 88.2371 52.8445 89.1815L54.3589 91.5613ZM58.6929 86.9723L61.1486 88.3602C62.4786 86.0072 63.1708 83.4924 63.1708 80.8536H60.3501H57.5293C57.5293 82.4639 57.1168 84.0282 56.2373 85.5843L58.6929 86.9723ZM60.3501 80.8536H63.1708C63.1708 78.1247 62.5599 75.5724 61.2967 73.2567L58.8204 74.6074L56.344 75.9582C57.1205 77.3817 57.5293 78.9935 57.5293 80.8536H60.3501ZM58.8204 74.6074L61.2967 73.2567C60.0284 70.9314 58.2198 69.0756 55.9213 67.7174L54.4863 70.1459L53.0513 72.5744C54.4921 73.4257 55.5729 74.5443 56.344 75.9582L58.8204 74.6074ZM54.4863 70.1459L55.9711 67.7475C53.6831 66.3311 51.0724 65.668 48.2402 65.668V68.4888V71.3096C50.167 71.3096 51.7204 71.7512 53.0016 72.5443L54.4863 70.1459ZM48.2402 68.4888V65.668H32.3062V68.4888V71.3096H48.2402V68.4888ZM32.3062 68.4888V65.668C27.685 65.668 23.629 64.7311 20.0769 62.9172L18.7941 65.4294L17.5113 67.9416C21.9475 70.2069 26.8995 71.3096 32.3062 71.3096V68.4888ZM18.7941 65.4294L20.1411 62.951C16.6597 61.059 13.925 58.4703 11.8928 55.1585L9.48861 56.6339L7.0844 58.1092C9.64118 62.2758 13.1102 65.5508 17.4471 67.9079L18.7941 65.4294ZM9.48861 56.6339L11.8928 55.1585C9.91239 51.9312 8.86764 48.0407 8.86764 43.3767H6.04686H3.22608C3.22608 48.9105 4.47584 53.8582 7.0844 58.1092L9.48861 56.6339ZM6.04686 43.3767H8.86764C8.86764 38.6958 9.87801 34.736 11.8036 31.4033L9.36114 29.9921L6.91873 28.581C4.42524 32.8966 3.22608 37.8599 3.22608 43.3767H6.04686ZM9.36114 29.9921L11.8168 31.3801C13.7829 27.9017 16.4423 25.2097 19.8228 23.2565L18.4117 20.8141L17.0005 18.3717C12.7327 20.8376 9.35844 24.2643 6.90548 28.6041L9.36114 29.9921ZM18.4117 20.8141L19.8228 23.2565C23.1773 21.3184 27.0161 20.3206 31.4139 20.3206V17.4998V14.6791C26.1237 14.6791 21.2944 15.8908 17.0005 18.3717L18.4117 20.8141ZM31.4139 17.4998V20.3206H69.783V17.4998V14.6791H31.4139V17.4998ZM69.783 17.4998H66.9622V30.8844H69.783H72.6038V17.4998H69.783ZM69.783 30.8844V28.0637H32.816V30.8844V33.7052H69.783V30.8844ZM32.816 30.8844V28.0637C30.1109 28.0637 27.5947 28.7475 25.3401 30.1432L26.8248 32.5416L28.3096 34.94C29.6242 34.1262 31.1022 33.7052 32.816 33.7052V30.8844ZM26.8248 32.5416L25.3401 30.1432C23.1646 31.4899 21.4272 33.2745 20.1691 35.4761L22.6183 36.8756L25.0674 38.2751C25.8489 36.9076 26.9158 35.8028 28.3096 34.94L26.8248 32.5416ZM22.6183 36.8756L20.1195 35.5668C18.9705 37.7604 18.3953 40.1223 18.3953 42.6119H21.2161H24.0368C24.0368 41.0224 24.3965 39.5601 25.117 38.1845L22.6183 36.8756ZM21.2161 42.6119H18.3953C18.3953 45.1667 18.9616 47.5739 20.1195 49.7845L22.6183 48.4756L25.117 47.1668C24.4053 45.8081 24.0368 44.3062 24.0368 42.6119H21.2161ZM22.6183 48.4756L20.1995 49.9269C21.4449 52.0027 23.1094 53.7144 25.1601 55.0473L26.6974 52.6822L28.2347 50.3171C26.8861 49.4405 25.8311 48.3478 25.0371 47.0243L22.6183 48.4756ZM26.6974 52.6822L25.2979 55.1313C27.5405 56.4128 30.0262 57.0327 32.6886 57.0327V54.2119V51.3911C30.9319 51.3911 29.4234 50.9911 28.0969 50.2331L26.6974 52.6822ZM32.6886 54.2119V57.0327H49.005V54.2119V51.3911H32.6886V54.2119ZM49.005 54.2119V57.0327C54.077 57.0327 58.2667 58.022 61.68 59.8771L63.027 57.3987L64.3739 54.9203C59.969 52.5263 54.8107 51.3911 49.005 51.3911V54.2119ZM63.027 57.3987L61.7023 59.8891C65.2498 61.776 67.9063 64.3385 69.7524 67.5878L72.205 66.1943L74.6575 64.8008C72.2546 60.5717 68.7924 57.2704 64.3517 54.9083L63.027 57.3987ZM72.205 66.1943L69.7765 67.6293C71.7005 70.8852 72.6985 74.6702 72.6985 79.069H75.5193H78.34C78.34 73.7799 77.1286 68.9817 74.6335 64.7593L72.205 66.1943ZM75.5193 79.069H72.6985C72.6985 84.3805 71.6303 88.8224 69.607 92.4944L72.0775 93.8558L74.5481 95.2171C77.1137 90.5609 78.34 85.145 78.34 79.069H75.5193ZM72.0775 93.8558L69.5972 92.5123C67.6266 96.1503 64.9264 98.9557 61.4716 100.984L62.8995 103.416L64.3274 105.849C68.6909 103.288 72.1094 99.7194 74.5578 95.1993L72.0775 93.8558ZM62.8995 103.416L61.4883 100.974C58.1339 102.912 54.2951 103.91 49.8973 103.91V106.73V109.551C55.1875 109.551 60.0168 108.34 64.3107 105.859L62.8995 103.416ZM49.8973 106.73V103.91H9.61609V106.73V109.551H49.8973V106.73ZM105.979 101.632L103.935 103.576L103.96 103.601L103.985 103.626L105.979 101.632ZM102.665 80.7261L100.161 79.4277L100.141 79.4648L100.123 79.5024L102.665 80.7261ZM108.401 73.9701L110.214 76.1313L110.226 76.1212L110.238 76.1108L108.401 73.9701ZM148.81 39.2976L147.048 37.0949L147.01 37.1253L146.973 37.1569L148.81 39.2976ZM150.594 37.3855L148.145 35.986V35.986L150.594 37.3855ZM103.43 30.8844H100.609V33.7052H103.43V30.8844ZM103.43 17.4998V14.6791H100.609V17.4998H103.43ZM158.498 19.9218L157.058 22.3473L157.086 22.3641L157.115 22.3803L158.498 19.9218ZM164.871 26.2954L167.33 24.9125V24.9125L164.871 26.2954ZM165.381 43.6317L167.904 44.8932L167.913 44.8756L167.922 44.858L165.381 43.6317ZM159.9 50.2602L158.102 48.0871L158.084 48.1017L158.066 48.1166L159.9 50.2602ZM119.364 84.9327L121.003 87.2281L121.104 87.1564L121.197 87.0763L119.364 84.9327ZM117.834 86.2074L115.84 84.2128L115.729 84.3233L115.631 84.4453L117.834 86.2074ZM117.069 87.4821L114.45 86.4345L114.379 86.6123L114.333 86.798L117.069 87.4821ZM117.452 91.0514L114.929 92.3129L114.989 92.4327L115.06 92.5464L117.452 91.0514ZM119.109 92.7085L120.604 90.3165L119.109 92.7085ZM167.421 93.3459H170.242V90.5251H167.421V93.3459ZM167.421 106.73V109.551H170.242V106.73H167.421ZM119.491 106.73V103.91C114.496 103.91 110.756 102.419 107.974 99.637L105.979 101.632L103.985 103.626C108.001 107.643 113.269 109.551 119.491 109.551V106.73ZM105.979 101.632L108.023 99.6875C105.257 96.7799 103.829 93.1226 103.829 88.5019H101.008H98.187C98.187 94.4189 100.073 99.5148 103.935 103.576L105.979 101.632ZM101.008 88.5019H103.829C103.829 85.979 104.309 83.8141 105.206 81.9498L102.665 80.7261L100.123 79.5024C98.8115 82.2271 98.187 85.2461 98.187 88.5019H101.008ZM102.665 80.7261L105.169 82.0246C106.141 80.1501 107.775 78.1764 110.214 76.1313L108.401 73.9701L106.588 71.8088C103.758 74.1828 101.568 76.7132 100.161 79.4277L102.665 80.7261ZM108.401 73.9701L110.238 76.1108L150.647 41.4384L148.81 39.2976L146.973 37.1569L106.564 71.8293L108.401 73.9701ZM148.81 39.2976L150.572 41.5003C151.555 40.7138 152.454 39.8162 153.044 38.785L150.594 37.3855L148.145 35.986C148.055 36.1447 147.764 36.5218 147.048 37.0949L148.81 39.2976ZM150.594 37.3855L153.044 38.785C153.679 37.6729 153.925 36.4424 153.925 35.2185H151.104H148.284C148.284 35.6942 148.19 35.9084 148.145 35.986L150.594 37.3855ZM151.104 35.2185H153.925C153.925 33.9215 153.513 32.7306 152.859 31.6839L150.467 33.1789L148.075 34.674C148.271 34.987 148.284 35.1558 148.284 35.2185H151.104ZM150.467 33.1789L152.859 31.6839C152.257 30.721 151.501 29.8862 150.577 29.2264L148.937 31.5218L147.298 33.8172C147.564 34.0073 147.827 34.2772 148.075 34.674L150.467 33.1789ZM148.937 31.5218L150.577 29.2264C149.429 28.4066 148.109 28.0637 146.77 28.0637V30.8844V33.7052C147.131 33.7052 147.256 33.7872 147.298 33.8172L148.937 31.5218ZM146.77 30.8844V28.0637H103.43V30.8844V33.7052H146.77V30.8844ZM103.43 30.8844H106.251V17.4998H103.43H100.609V30.8844H103.43ZM103.43 17.4998V20.3206H148.682V17.4998V14.6791H103.43V17.4998ZM148.682 17.4998V20.3206C152.106 20.3206 154.857 21.0407 157.058 22.3473L158.498 19.9218L159.938 17.4964C156.7 15.5737 152.907 14.6791 148.682 14.6791V17.4998ZM158.498 19.9218L157.115 22.3803C159.384 23.6567 161.136 25.4092 162.413 27.6784L164.871 26.2954L167.33 24.9125C165.547 21.7428 163.05 19.2462 159.881 17.4633L158.498 19.9218ZM164.871 26.2954L162.413 27.6784C163.678 29.928 164.345 32.5434 164.345 35.6009H167.166H169.987C169.987 31.6899 169.124 28.1017 167.33 24.9125L164.871 26.2954ZM167.166 35.6009H164.345C164.345 38.0899 163.836 40.3446 162.841 42.4053L165.381 43.6317L167.922 44.858C169.306 41.9898 169.987 38.8907 169.987 35.6009H167.166ZM165.381 43.6317L162.858 42.3702C161.876 44.3351 160.324 46.248 158.102 48.0871L159.9 50.2602L161.698 52.4333C164.405 50.1933 166.507 47.6872 167.904 44.8932L165.381 43.6317ZM159.9 50.2602L158.066 48.1166L117.53 82.7891L119.364 84.9327L121.197 87.0763L161.733 52.4038L159.9 50.2602ZM119.364 84.9327L117.724 82.6373C117.029 83.1339 116.395 83.6575 115.84 84.2128L117.834 86.2074L119.829 88.202C120.123 87.9075 120.509 87.5813 121.003 87.2281L119.364 84.9327ZM117.834 86.2074L115.631 84.4453C115.15 85.047 114.74 85.7091 114.45 86.4345L117.069 87.4821L119.688 88.5298C119.738 88.4054 119.838 88.2177 120.037 87.9696L117.834 86.2074ZM117.069 87.4821L114.333 86.798C114.161 87.4832 114.121 88.2742 114.121 89.0118H116.942H119.763C119.763 88.7264 119.772 88.5103 119.785 88.3538C119.798 88.1882 119.813 88.1382 119.806 88.1663L117.069 87.4821ZM116.942 89.0118H114.121C114.121 90.179 114.416 91.2881 114.929 92.3129L117.452 91.0514L119.975 89.7899C119.807 89.455 119.763 89.2043 119.763 89.0118H116.942ZM117.452 91.0514L115.06 92.5464C115.712 93.5895 116.571 94.4486 117.614 95.1005L119.109 92.7085L120.604 90.3165C120.287 90.1186 120.042 89.873 119.844 89.5564L117.452 91.0514ZM119.109 92.7085L117.614 95.1005C118.769 95.8227 120.058 96.1667 121.403 96.1667V93.3459V90.5251C121.049 90.5251 120.808 90.4441 120.604 90.3165L119.109 92.7085ZM121.403 93.3459V96.1667H167.421V93.3459V90.5251H121.403V93.3459ZM167.421 93.3459H164.6V106.73H167.421H170.242V93.3459H167.421ZM167.421 106.73V103.91H119.491V106.73V109.551H167.421V106.73ZM228.54 103.416L227.064 105.82L227.085 105.833L227.105 105.845L228.54 103.416ZM219.744 94.2382L217.255 95.5656L217.267 95.5869L217.278 95.6081L219.744 94.2382ZM216.685 30.8844H219.506V28.0637H216.685V30.8844ZM190.681 30.8844H187.86V33.7052H190.681V30.8844ZM190.681 17.4998V14.6791H187.86V17.4998H190.681ZM257.858 17.4998H260.679V14.6791H257.858V17.4998ZM257.858 30.8844V33.7052H260.679V30.8844H257.858ZM231.854 30.8844V28.0637H229.033V30.8844H231.854ZM234.658 90.414L236.697 88.4642L234.658 90.414ZM247.916 93.3459H250.736V90.5251H247.916V93.3459ZM247.916 106.73V109.551H250.736V106.73H247.916ZM241.669 106.73V103.91C237.081 103.91 233.216 102.903 229.975 100.988L228.54 103.416L227.105 105.845C231.342 108.348 236.23 109.551 241.669 109.551V106.73ZM228.54 103.416L230.015 101.012C226.688 98.9705 224.098 96.267 222.21 92.8683L219.744 94.2382L217.278 95.6081C219.639 99.8577 222.913 103.273 227.064 105.82L228.54 103.416ZM219.744 94.2382L222.233 92.9108C220.428 89.5268 219.506 85.7392 219.506 81.491H216.685H213.864C213.864 86.5907 214.981 91.3012 217.255 95.5656L219.744 94.2382ZM216.685 81.491H219.506V30.8844H216.685H213.864V81.491H216.685ZM216.685 30.8844V28.0637H190.681V30.8844V33.7052H216.685V30.8844ZM190.681 30.8844H193.501V17.4998H190.681H187.86V30.8844H190.681ZM190.681 17.4998V20.3206H257.858V17.4998V14.6791H190.681V17.4998ZM257.858 17.4998H255.038V30.8844H257.858H260.679V17.4998H257.858ZM257.858 30.8844V28.0637H231.854V30.8844V33.7052H257.858V30.8844ZM231.854 30.8844H229.033V83.403H231.854H234.675V30.8844H231.854ZM231.854 83.403H229.033C229.033 86.8445 230.245 89.8811 232.62 92.3638L234.658 90.414L236.697 88.4642C235.332 87.0378 234.675 85.4004 234.675 83.403H231.854ZM234.658 90.414L232.62 92.3638C235.061 94.9157 238.196 96.1667 241.797 96.1667V93.3459V90.5251C239.619 90.5251 237.995 89.8215 236.697 88.4642L234.658 90.414ZM241.797 93.3459V96.1667H247.916V93.3459V90.5251H241.797V93.3459ZM247.916 93.3459H245.095V106.73H247.916H250.736V93.3459H247.916ZM247.916 106.73V103.91H241.669V106.73V109.551H247.916V106.73ZM301.891 103.926L300.538 106.401L300.553 106.409L300.568 106.417L301.891 103.926ZM289.016 91.3063L286.558 92.6892L286.566 92.7037L286.574 92.7181L289.016 91.3063ZM284.427 17.4998V14.6791H281.607V17.4998H284.427ZM299.597 17.4998H302.417V14.6791H299.597V17.4998ZM302.146 83.9129L299.636 85.2001L299.649 85.2253L299.663 85.2503L302.146 83.9129ZM309.539 91.9437L308.004 94.3102L308.027 94.325L308.05 94.3393L309.539 91.9437ZM331.847 91.9437L333.366 94.3207L333.374 94.3155L333.382 94.3102L331.847 91.9437ZM339.113 83.9129L341.623 85.2001L339.113 83.9129ZM341.663 17.4998V14.6791H338.842V17.4998H341.663ZM356.959 17.4998H359.78V14.6791H356.959V17.4998ZM352.243 91.3063L349.801 89.8945L352.243 91.3063ZM339.368 103.926L340.691 106.417L340.706 106.409L340.721 106.401L339.368 103.926ZM320.63 108.26V105.439C313.97 105.439 308.19 104.078 303.215 101.435L301.891 103.926L300.568 106.417C306.47 109.553 313.182 111.081 320.63 111.081V108.26ZM301.891 103.926L303.245 101.451C298.266 98.7283 294.348 94.8923 291.458 89.8945L289.016 91.3063L286.574 92.7181C289.974 98.598 294.639 103.175 300.538 106.401L301.891 103.926ZM289.016 91.3063L291.475 89.9234C288.699 84.9878 287.248 78.9843 287.248 71.8031H284.427H281.607C281.607 79.7486 283.216 86.7472 286.558 92.6892L289.016 91.3063ZM284.427 71.8031H287.248V17.4998H284.427H281.607V71.8031H284.427ZM284.427 17.4998V20.3206H299.597V17.4998V14.6791H284.427V17.4998ZM299.597 17.4998H296.776V73.0778H299.597H302.417V17.4998H299.597ZM299.597 73.0778H296.776C296.776 77.4117 297.722 81.4677 299.636 85.2001L302.146 83.9129L304.656 82.6258C303.171 79.7296 302.417 76.5621 302.417 73.0778H299.597ZM302.146 83.9129L299.663 85.2503C301.671 88.9799 304.461 92.0116 308.004 94.3102L309.539 91.9437L311.075 89.5772C308.33 87.7967 306.191 85.4745 304.63 82.5756L302.146 83.9129ZM309.539 91.9437L308.05 94.3393C311.713 96.6163 315.988 97.6963 320.757 97.6963V94.8755V92.0548C316.858 92.0548 313.654 91.1802 311.029 89.548L309.539 91.9437ZM320.757 94.8755V97.6963C325.524 97.6963 329.772 96.6171 333.366 94.3207L331.847 91.9437L330.328 89.5666C327.804 91.1794 324.659 92.0548 320.757 92.0548V94.8755ZM331.847 91.9437L333.382 94.3102C336.938 92.004 339.697 88.9561 341.623 85.2001L339.113 83.9129L336.603 82.6258C335.13 85.4983 333.045 87.8042 330.312 89.5772L331.847 91.9437ZM339.113 83.9129L341.623 85.2001C343.537 81.4677 344.483 77.4117 344.483 73.0778H341.663H338.842C338.842 76.5621 338.088 79.7296 336.603 82.6258L339.113 83.9129ZM341.663 73.0778H344.483V17.4998H341.663H338.842V73.0778H341.663ZM341.663 17.4998V20.3206H356.959V17.4998V14.6791H341.663V17.4998ZM356.959 17.4998H354.138V71.8031H356.959H359.78V17.4998H356.959ZM356.959 71.8031H354.138C354.138 78.9718 352.651 84.9646 349.801 89.8945L352.243 91.3063L354.685 92.7181C358.123 86.7704 359.78 79.761 359.78 71.8031H356.959ZM352.243 91.3063L349.801 89.8945C346.911 94.8923 342.994 98.7283 338.015 101.451L339.368 103.926L340.721 106.401C346.62 103.175 351.285 98.598 354.685 92.7181L352.243 91.3063ZM339.368 103.926L338.045 101.435C333.069 104.078 327.289 105.439 320.63 105.439V108.26V111.081C328.077 111.081 334.789 109.553 340.691 106.417L339.368 103.926ZM390.361 106.73H387.54V109.551H390.361V106.73ZM390.361 17.4998V14.6791H387.54V17.4998H390.361ZM405.53 17.4998H408.351V14.6791H405.53V17.4998ZM405.53 56.124H402.709V58.9447H405.53V56.124ZM434.466 54.3393L435.627 56.9101L435.646 56.9019L435.664 56.8935L434.466 54.3393ZM440.84 48.858L438.506 47.2742L438.486 47.3032L438.467 47.3327L440.84 48.858ZM443.262 17.4998V14.6791H440.441V17.4998H443.262ZM458.431 17.4998H461.252V14.6791H458.431V17.4998ZM454.097 55.6141L451.736 54.0704L454.097 55.6141ZM442.625 65.9393L441.327 63.4345L438.94 64.6707L440.06 67.1146L442.625 65.9393ZM453.842 90.414L456.446 89.3291L456.427 89.2836L456.406 89.2387L453.842 90.414ZM455.499 92.581L456.994 90.189L455.499 92.581ZM465.697 93.2184H468.518V90.3976H465.697V93.2184ZM465.697 106.73V109.551H468.518V106.73H465.697ZM445.939 104.181L444.374 106.528L444.392 106.54L444.41 106.551L445.939 104.181ZM440.075 97.17L442.641 95.9973L442.639 95.9939L440.075 97.17ZM427.328 69.3811L429.892 68.205L429.06 66.3912L427.072 66.5719L427.328 69.3811ZM424.651 69.636V72.4568H424.792L424.932 72.4428L424.651 69.636ZM405.53 69.636V66.8152H402.709V69.636H405.53ZM405.53 106.73V109.551H408.351V106.73H405.53ZM390.361 106.73H393.182V17.4998H390.361H387.54V106.73H390.361ZM390.361 17.4998V20.3206H405.53V17.4998V14.6791H390.361V17.4998ZM405.53 17.4998H402.709V56.124H405.53H408.351V17.4998H405.53ZM405.53 56.124V58.9447H425.671V56.124V53.3032H405.53V56.124ZM425.671 56.124V58.9447C429.253 58.9447 432.587 58.283 435.627 56.9101L434.466 54.3393L433.305 51.7686C431.076 52.7752 428.547 53.3032 425.671 53.3032V56.124ZM434.466 54.3393L435.664 56.8935C438.833 55.4079 441.378 53.2376 443.213 50.3834L440.84 48.858L438.467 47.3327C437.243 49.2374 435.539 50.7214 433.269 51.7852L434.466 54.3393ZM440.84 48.858L443.174 50.4419C445.152 47.5267 446.083 44.1078 446.083 40.3174H443.262H440.441C440.441 43.1556 439.757 45.4304 438.506 47.2742L440.84 48.858ZM443.262 40.3174H446.083V17.4998H443.262H440.441V40.3174H443.262ZM443.262 17.4998V20.3206H458.431V17.4998V14.6791H443.262V17.4998ZM458.431 17.4998H455.61V40.1899H458.431H461.252V17.4998H458.431ZM458.431 40.1899H455.61C455.61 45.5682 454.293 50.1602 451.736 54.0704L454.097 55.6141L456.458 57.1577C459.68 52.2299 461.252 46.5391 461.252 40.1899H458.431ZM454.097 55.6141L451.736 54.0704C449.117 58.0764 445.662 61.1899 441.327 63.4345L442.625 65.9393L443.922 68.4442C449.105 65.7598 453.299 61.9898 456.458 57.1577L454.097 55.6141ZM442.625 65.9393L440.06 67.1146L451.278 91.5893L453.842 90.414L456.406 89.2387L445.189 64.764L442.625 65.9393ZM453.842 90.414L451.238 91.4989C451.805 92.8597 452.672 94.1405 454.004 94.9731L455.499 92.581L456.994 90.189C456.967 90.1718 456.729 90.0078 456.446 89.3291L453.842 90.414ZM455.499 92.581L454.004 94.9731C455.271 95.7651 456.735 96.0392 458.176 96.0392V93.2184V90.3976C457.408 90.3976 457.087 90.2468 456.994 90.189L455.499 92.581ZM458.176 93.2184V96.0392H465.697V93.2184V90.3976H458.176V93.2184ZM465.697 93.2184H462.876V106.73H465.697H468.518V93.2184H465.697ZM465.697 106.73V103.91H455.882V106.73V109.551H465.697V106.73ZM455.882 106.73V103.91C452.283 103.91 449.537 103.145 447.468 101.811L445.939 104.181L444.41 106.551C447.61 108.616 451.493 109.551 455.882 109.551V106.73ZM445.939 104.181L447.504 101.834C445.42 100.445 443.798 98.5283 442.641 95.9973L440.075 97.17L437.51 98.3428C439.072 101.761 441.359 104.518 444.374 106.528L445.939 104.181ZM440.075 97.17L442.639 95.9939L429.892 68.205L427.328 69.3811L424.764 70.5572L437.511 98.3461L440.075 97.17ZM427.328 69.3811L427.072 66.5719C426.13 66.6576 425.229 66.7433 424.37 66.8292L424.651 69.636L424.932 72.4428C425.772 72.3587 426.656 72.2746 427.583 72.1903L427.328 69.3811ZM424.651 69.636V66.8152C424.649 66.8152 424.648 66.8152 424.646 66.8152C424.644 66.8152 424.643 66.8152 424.641 66.8152C424.639 66.8152 424.638 66.8152 424.636 66.8152C424.634 66.8152 424.633 66.8152 424.631 66.8152C424.629 66.8152 424.628 66.8152 424.626 66.8152C424.624 66.8152 424.623 66.8152 424.621 66.8152C424.619 66.8152 424.618 66.8152 424.616 66.8152C424.614 66.8152 424.613 66.8152 424.611 66.8152C424.609 66.8152 424.608 66.8152 424.606 66.8152C424.604 66.8152 424.603 66.8152 424.601 66.8152C424.599 66.8152 424.598 66.8152 424.596 66.8152C424.594 66.8152 424.593 66.8152 424.591 66.8152C424.589 66.8152 424.588 66.8152 424.586 66.8152C424.584 66.8152 424.583 66.8152 424.581 66.8152C424.579 66.8152 424.578 66.8152 424.576 66.8152C424.574 66.8152 424.573 66.8152 424.571 66.8152C424.569 66.8152 424.568 66.8152 424.566 66.8152C424.564 66.8152 424.563 66.8152 424.561 66.8152C424.559 66.8152 424.558 66.8152 424.556 66.8152C424.554 66.8152 424.553 66.8152 424.551 66.8152C424.549 66.8152 424.548 66.8152 424.546 66.8152C424.544 66.8152 424.543 66.8152 424.541 66.8152C424.539 66.8152 424.538 66.8152 424.536 66.8152C424.534 66.8152 424.533 66.8152 424.531 66.8152C424.529 66.8152 424.528 66.8152 424.526 66.8152C424.524 66.8152 424.522 66.8152 424.521 66.8152C424.519 66.8152 424.517 66.8152 424.516 66.8152C424.514 66.8152 424.512 66.8152 424.511 66.8152C424.509 66.8152 424.507 66.8152 424.506 66.8152C424.504 66.8152 424.502 66.8152 424.501 66.8152C424.499 66.8152 424.497 66.8152 424.496 66.8152C424.494 66.8152 424.492 66.8152 424.491 66.8152C424.489 66.8152 424.487 66.8152 424.486 66.8152C424.484 66.8152 424.482 66.8152 424.481 66.8152C424.479 66.8152 424.477 66.8152 424.475 66.8152C424.474 66.8152 424.472 66.8152 424.47 66.8152C424.469 66.8152 424.467 66.8152 424.465 66.8152C424.464 66.8152 424.462 66.8152 424.46 66.8152C424.459 66.8152 424.457 66.8152 424.455 66.8152C424.454 66.8152 424.452 66.8152 424.45 66.8152C424.449 66.8152 424.447 66.8152 424.445 66.8152C424.443 66.8152 424.442 66.8152 424.44 66.8152C424.438 66.8152 424.437 66.8152 424.435 66.8152C424.433 66.8152 424.432 66.8152 424.43 66.8152C424.428 66.8152 424.427 66.8152 424.425 66.8152C424.423 66.8152 424.422 66.8152 424.42 66.8152C424.418 66.8152 424.416 66.8152 424.415 66.8152C424.413 66.8152 424.411 66.8152 424.41 66.8152C424.408 66.8152 424.406 66.8152 424.405 66.8152C424.403 66.8152 424.401 66.8152 424.4 66.8152C424.398 66.8152 424.396 66.8152 424.394 66.8152C424.393 66.8152 424.391 66.8152 424.389 66.8152C424.388 66.8152 424.386 66.8152 424.384 66.8152C424.383 66.8152 424.381 66.8152 424.379 66.8152C424.378 66.8152 424.376 66.8152 424.374 66.8152C424.372 66.8152 424.371 66.8152 424.369 66.8152C424.367 66.8152 424.366 66.8152 424.364 66.8152C424.362 66.8152 424.361 66.8152 424.359 66.8152C424.357 66.8152 424.355 66.8152 424.354 66.8152C424.352 66.8152 424.35 66.8152 424.349 66.8152C424.347 66.8152 424.345 66.8152 424.344 66.8152C424.342 66.8152 424.34 66.8152 424.339 66.8152C424.337 66.8152 424.335 66.8152 424.333 66.8152C424.332 66.8152 424.33 66.8152 424.328 66.8152C424.327 66.8152 424.325 66.8152 424.323 66.8152C424.321 66.8152 424.32 66.8152 424.318 66.8152C424.316 66.8152 424.315 66.8152 424.313 66.8152C424.311 66.8152 424.31 66.8152 424.308 66.8152C424.306 66.8152 424.304 66.8152 424.303 66.8152C424.301 66.8152 424.299 66.8152 424.298 66.8152C424.296 66.8152 424.294 66.8152 424.293 66.8152C424.291 66.8152 424.289 66.8152 424.287 66.8152C424.286 66.8152 424.284 66.8152 424.282 66.8152C424.281 66.8152 424.279 66.8152 424.277 66.8152C424.275 66.8152 424.274 66.8152 424.272 66.8152C424.27 66.8152 424.269 66.8152 424.267 66.8152C424.265 66.8152 424.263 66.8152 424.262 66.8152C424.26 66.8152 424.258 66.8152 424.257 66.8152C424.255 66.8152 424.253 66.8152 424.251 66.8152C424.25 66.8152 424.248 66.8152 424.246 66.8152C424.245 66.8152 424.243 66.8152 424.241 66.8152C424.24 66.8152 424.238 66.8152 424.236 66.8152C424.234 66.8152 424.233 66.8152 424.231 66.8152C424.229 66.8152 424.228 66.8152 424.226 66.8152C424.224 66.8152 424.222 66.8152 424.221 66.8152C424.219 66.8152 424.217 66.8152 424.216 66.8152C424.214 66.8152 424.212 66.8152 424.21 66.8152C424.209 66.8152 424.207 66.8152 424.205 66.8152C424.204 66.8152 424.202 66.8152 424.2 66.8152C424.198 66.8152 424.197 66.8152 424.195 66.8152C424.193 66.8152 424.191 66.8152 424.19 66.8152C424.188 66.8152 424.186 66.8152 424.185 66.8152C424.183 66.8152 424.181 66.8152 424.179 66.8152C424.178 66.8152 424.176 66.8152 424.174 66.8152C424.173 66.8152 424.171 66.8152 424.169 66.8152C424.167 66.8152 424.166 66.8152 424.164 66.8152C424.162 66.8152 424.161 66.8152 424.159 66.8152C424.157 66.8152 424.155 66.8152 424.154 66.8152C424.152 66.8152 424.15 66.8152 424.148 66.8152C424.147 66.8152 424.145 66.8152 424.143 66.8152C424.142 66.8152 424.14 66.8152 424.138 66.8152C424.136 66.8152 424.135 66.8152 424.133 66.8152C424.131 66.8152 424.129 66.8152 424.128 66.8152C424.126 66.8152 424.124 66.8152 424.123 66.8152C424.121 66.8152 424.119 66.8152 424.117 66.8152C424.116 66.8152 424.114 66.8152 424.112 66.8152C424.11 66.8152 424.109 66.8152 424.107 66.8152C424.105 66.8152 424.104 66.8152 424.102 66.8152C424.1 66.8152 424.098 66.8152 424.097 66.8152C424.095 66.8152 424.093 66.8152 424.091 66.8152C424.09 66.8152 424.088 66.8152 424.086 66.8152C424.085 66.8152 424.083 66.8152 424.081 66.8152C424.079 66.8152 424.078 66.8152 424.076 66.8152C424.074 66.8152 424.072 66.8152 424.071 66.8152C424.069 66.8152 424.067 66.8152 424.065 66.8152C424.064 66.8152 424.062 66.8152 424.06 66.8152C424.059 66.8152 424.057 66.8152 424.055 66.8152C424.053 66.8152 424.052 66.8152 424.05 66.8152C424.048 66.8152 424.046 66.8152 424.045 66.8152C424.043 66.8152 424.041 66.8152 424.039 66.8152C424.038 66.8152 424.036 66.8152 424.034 66.8152C424.032 66.8152 424.031 66.8152 424.029 66.8152C424.027 66.8152 424.026 66.8152 424.024 66.8152C424.022 66.8152 424.02 66.8152 424.019 66.8152C424.017 66.8152 424.015 66.8152 424.013 66.8152C424.012 66.8152 424.01 66.8152 424.008 66.8152C424.006 66.8152 424.005 66.8152 424.003 66.8152C424.001 66.8152 423.999 66.8152 423.998 66.8152C423.996 66.8152 423.994 66.8152 423.992 66.8152C423.991 66.8152 423.989 66.8152 423.987 66.8152C423.985 66.8152 423.984 66.8152 423.982 66.8152C423.98 66.8152 423.978 66.8152 423.977 66.8152C423.975 66.8152 423.973 66.8152 423.971 66.8152C423.97 66.8152 423.968 66.8152 423.966 66.8152C423.965 66.8152 423.963 66.8152 423.961 66.8152C423.959 66.8152 423.958 66.8152 423.956 66.8152C423.954 66.8152 423.952 66.8152 423.951 66.8152C423.949 66.8152 423.947 66.8152 423.945 66.8152C423.944 66.8152 423.942 66.8152 423.94 66.8152C423.938 66.8152 423.937 66.8152 423.935 66.8152C423.933 66.8152 423.931 66.8152 423.93 66.8152C423.928 66.8152 423.926 66.8152 423.924 66.8152C423.923 66.8152 423.921 66.8152 423.919 66.8152C423.917 66.8152 423.915 66.8152 423.914 66.8152C423.912 66.8152 423.91 66.8152 423.908 66.8152C423.907 66.8152 423.905 66.8152 423.903 66.8152C423.901 66.8152 423.9 66.8152 423.898 66.8152C423.896 66.8152 423.894 66.8152 423.893 66.8152C423.891 66.8152 423.889 66.8152 423.887 66.8152C423.886 66.8152 423.884 66.8152 423.882 66.8152C423.88 66.8152 423.879 66.8152 423.877 66.8152C423.875 66.8152 423.873 66.8152 423.872 66.8152C423.87 66.8152 423.868 66.8152 423.866 66.8152C423.865 66.8152 423.863 66.8152 423.861 66.8152C423.859 66.8152 423.858 66.8152 423.856 66.8152C423.854 66.8152 423.852 66.8152 423.85 66.8152C423.849 66.8152 423.847 66.8152 423.845 66.8152C423.843 66.8152 423.842 66.8152 423.84 66.8152C423.838 66.8152 423.836 66.8152 423.835 66.8152C423.833 66.8152 423.831 66.8152 423.829 66.8152C423.828 66.8152 423.826 66.8152 423.824 66.8152C423.822 66.8152 423.821 66.8152 423.819 66.8152C423.817 66.8152 423.815 66.8152 423.813 66.8152C423.812 66.8152 423.81 66.8152 423.808 66.8152C423.806 66.8152 423.805 66.8152 423.803 66.8152C423.801 66.8152 423.799 66.8152 423.798 66.8152C423.796 66.8152 423.794 66.8152 423.792 66.8152C423.79 66.8152 423.789 66.8152 423.787 66.8152C423.785 66.8152 423.783 66.8152 423.782 66.8152C423.78 66.8152 423.778 66.8152 423.776 66.8152C423.775 66.8152 423.773 66.8152 423.771 66.8152C423.769 66.8152 423.767 66.8152 423.766 66.8152C423.764 66.8152 423.762 66.8152 423.76 66.8152C423.759 66.8152 423.757 66.8152 423.755 66.8152C423.753 66.8152 423.752 66.8152 423.75 66.8152C423.748 66.8152 423.746 66.8152 423.744 66.8152C423.743 66.8152 423.741 66.8152 423.739 66.8152C423.737 66.8152 423.736 66.8152 423.734 66.8152C423.732 66.8152 423.73 66.8152 423.728 66.8152C423.727 66.8152 423.725 66.8152 423.723 66.8152C423.721 66.8152 423.72 66.8152 423.718 66.8152C423.716 66.8152 423.714 66.8152 423.712 66.8152C423.711 66.8152 423.709 66.8152 423.707 66.8152C423.705 66.8152 423.704 66.8152 423.702 66.8152C423.7 66.8152 423.698 66.8152 423.696 66.8152C423.695 66.8152 423.693 66.8152 423.691 66.8152C423.689 66.8152 423.688 66.8152 423.686 66.8152C423.684 66.8152 423.682 66.8152 423.68 66.8152C423.679 66.8152 423.677 66.8152 423.675 66.8152C423.673 66.8152 423.672 66.8152 423.67 66.8152C423.668 66.8152 423.666 66.8152 423.664 66.8152C423.663 66.8152 423.661 66.8152 423.659 66.8152C423.657 66.8152 423.655 66.8152 423.654 66.8152C423.652 66.8152 423.65 66.8152 423.648 66.8152C423.647 66.8152 423.645 66.8152 423.643 66.8152C423.641 66.8152 423.639 66.8152 423.638 66.8152C423.636 66.8152 423.634 66.8152 423.632 66.8152C423.63 66.8152 423.629 66.8152 423.627 66.8152C423.625 66.8152 423.623 66.8152 423.622 66.8152C423.62 66.8152 423.618 66.8152 423.616 66.8152C423.614 66.8152 423.613 66.8152 423.611 66.8152C423.609 66.8152 423.607 66.8152 423.605 66.8152C423.604 66.8152 423.602 66.8152 423.6 66.8152C423.598 66.8152 423.596 66.8152 423.595 66.8152C423.593 66.8152 423.591 66.8152 423.589 66.8152C423.588 66.8152 423.586 66.8152 423.584 66.8152C423.582 66.8152 423.58 66.8152 423.579 66.8152C423.577 66.8152 423.575 66.8152 423.573 66.8152C423.571 66.8152 423.57 66.8152 423.568 66.8152C423.566 66.8152 423.564 66.8152 423.562 66.8152C423.561 66.8152 423.559 66.8152 423.557 66.8152C423.555 66.8152 423.553 66.8152 423.552 66.8152C423.55 66.8152 423.548 66.8152 423.546 66.8152C423.544 66.8152 423.543 66.8152 423.541 66.8152C423.539 66.8152 423.537 66.8152 423.535 66.8152C423.534 66.8152 423.532 66.8152 423.53 66.8152C423.528 66.8152 423.526 66.8152 423.525 66.8152C423.523 66.8152 423.521 66.8152 423.519 66.8152C423.517 66.8152 423.516 66.8152 423.514 66.8152C423.512 66.8152 423.51 66.8152 423.508 66.8152C423.507 66.8152 423.505 66.8152 423.503 66.8152C423.501 66.8152 423.499 66.8152 423.498 66.8152C423.496 66.8152 423.494 66.8152 423.492 66.8152C423.49 66.8152 423.489 66.8152 423.487 66.8152C423.485 66.8152 423.483 66.8152 423.481 66.8152C423.48 66.8152 423.478 66.8152 423.476 66.8152C423.474 66.8152 423.472 66.8152 423.471 66.8152C423.469 66.8152 423.467 66.8152 423.465 66.8152C423.463 66.8152 423.461 66.8152 423.46 66.8152C423.458 66.8152 423.456 66.8152 423.454 66.8152C423.452 66.8152 423.451 66.8152 423.449 66.8152C423.447 66.8152 423.445 66.8152 423.443 66.8152C423.442 66.8152 423.44 66.8152 423.438 66.8152C423.436 66.8152 423.434 66.8152 423.433 66.8152C423.431 66.8152 423.429 66.8152 423.427 66.8152C423.425 66.8152 423.423 66.8152 423.422 66.8152C423.42 66.8152 423.418 66.8152 423.416 66.8152C423.414 66.8152 423.413 66.8152 423.411 66.8152C423.409 66.8152 423.407 66.8152 423.405 66.8152C423.404 66.8152 423.402 66.8152 423.4 66.8152C423.398 66.8152 423.396 66.8152 423.394 66.8152C423.393 66.8152 423.391 66.8152 423.389 66.8152C423.387 66.8152 423.385 66.8152 423.384 66.8152C423.382 66.8152 423.38 66.8152 423.378 66.8152C423.376 66.8152 423.374 66.8152 423.373 66.8152C423.371 66.8152 423.369 66.8152 423.367 66.8152C423.365 66.8152 423.364 66.8152 423.362 66.8152C423.36 66.8152 423.358 66.8152 423.356 66.8152C423.354 66.8152 423.353 66.8152 423.351 66.8152C423.349 66.8152 423.347 66.8152 423.345 66.8152C423.344 66.8152 423.342 66.8152 423.34 66.8152C423.338 66.8152 423.336 66.8152 423.334 66.8152C423.333 66.8152 423.331 66.8152 423.329 66.8152C423.327 66.8152 423.325 66.8152 423.323 66.8152C423.322 66.8152 423.32 66.8152 423.318 66.8152C423.316 66.8152 423.314 66.8152 423.312 66.8152C423.311 66.8152 423.309 66.8152 423.307 66.8152C423.305 66.8152 423.303 66.8152 423.302 66.8152C423.3 66.8152 423.298 66.8152 423.296 66.8152C423.294 66.8152 423.292 66.8152 423.291 66.8152C423.289 66.8152 423.287 66.8152 423.285 66.8152C423.283 66.8152 423.281 66.8152 423.28 66.8152C423.278 66.8152 423.276 66.8152 423.274 66.8152C423.272 66.8152 423.27 66.8152 423.269 66.8152C423.267 66.8152 423.265 66.8152 423.263 66.8152C423.261 66.8152 423.259 66.8152 423.258 66.8152C423.256 66.8152 423.254 66.8152 423.252 66.8152C423.25 66.8152 423.248 66.8152 423.247 66.8152C423.245 66.8152 423.243 66.8152 423.241 66.8152C423.239 66.8152 423.237 66.8152 423.236 66.8152C423.234 66.8152 423.232 66.8152 423.23 66.8152C423.228 66.8152 423.226 66.8152 423.225 66.8152C423.223 66.8152 423.221 66.8152 423.219 66.8152C423.217 66.8152 423.215 66.8152 423.214 66.8152C423.212 66.8152 423.21 66.8152 423.208 66.8152C423.206 66.8152 423.204 66.8152 423.203 66.8152C423.201 66.8152 423.199 66.8152 423.197 66.8152C423.195 66.8152 423.193 66.8152 423.192 66.8152C423.19 66.8152 423.188 66.8152 423.186 66.8152C423.184 66.8152 423.182 66.8152 423.18 66.8152C423.179 66.8152 423.177 66.8152 423.175 66.8152C423.173 66.8152 423.171 66.8152 423.169 66.8152C423.168 66.8152 423.166 66.8152 423.164 66.8152C423.162 66.8152 423.16 66.8152 423.158 66.8152C423.157 66.8152 423.155 66.8152 423.153 66.8152C423.151 66.8152 423.149 66.8152 423.147 66.8152C423.145 66.8152 423.144 66.8152 423.142 66.8152C423.14 66.8152 423.138 66.8152 423.136 66.8152C423.134 66.8152 423.133 66.8152 423.131 66.8152C423.129 66.8152 423.127 66.8152 423.125 66.8152C423.123 66.8152 423.121 66.8152 423.12 66.8152C423.118 66.8152 423.116 66.8152 423.114 66.8152C423.112 66.8152 423.11 66.8152 423.108 66.8152C423.107 66.8152 423.105 66.8152 423.103 66.8152C423.101 66.8152 423.099 66.8152 423.097 66.8152C423.096 66.8152 423.094 66.8152 423.092 66.8152C423.09 66.8152 423.088 66.8152 423.086 66.8152C423.084 66.8152 423.083 66.8152 423.081 66.8152C423.079 66.8152 423.077 66.8152 423.075 66.8152C423.073 66.8152 423.071 66.8152 423.07 66.8152C423.068 66.8152 423.066 66.8152 423.064 66.8152C423.062 66.8152 423.06 66.8152 423.058 66.8152C423.057 66.8152 423.055 66.8152 423.053 66.8152C423.051 66.8152 423.049 66.8152 423.047 66.8152C423.045 66.8152 423.044 66.8152 423.042 66.8152C423.04 66.8152 423.038 66.8152 423.036 66.8152C423.034 66.8152 423.032 66.8152 423.031 66.8152C423.029 66.8152 423.027 66.8152 423.025 66.8152C423.023 66.8152 423.021 66.8152 423.019 66.8152C423.018 66.8152 423.016 66.8152 423.014 66.8152C423.012 66.8152 423.01 66.8152 423.008 66.8152C423.006 66.8152 423.005 66.8152 423.003 66.8152C423.001 66.8152 422.999 66.8152 422.997 66.8152C422.995 66.8152 422.993 66.8152 422.992 66.8152C422.99 66.8152 422.988 66.8152 422.986 66.8152C422.984 66.8152 422.982 66.8152 422.98 66.8152C422.978 66.8152 422.977 66.8152 422.975 66.8152C422.973 66.8152 422.971 66.8152 422.969 66.8152C422.967 66.8152 422.965 66.8152 422.964 66.8152C422.962 66.8152 422.96 66.8152 422.958 66.8152C422.956 66.8152 422.954 66.8152 422.952 66.8152C422.951 66.8152 422.949 66.8152 422.947 66.8152C422.945 66.8152 422.943 66.8152 422.941 66.8152C422.939 66.8152 422.937 66.8152 422.936 66.8152C422.934 66.8152 422.932 66.8152 422.93 66.8152C422.928 66.8152 422.926 66.8152 422.924 66.8152C422.922 66.8152 422.921 66.8152 422.919 66.8152C422.917 66.8152 422.915 66.8152 422.913 66.8152C422.911 66.8152 422.909 66.8152 422.907 66.8152C422.906 66.8152 422.904 66.8152 422.902 66.8152C422.9 66.8152 422.898 66.8152 422.896 66.8152C422.894 66.8152 422.892 66.8152 422.891 66.8152C422.889 66.8152 422.887 66.8152 422.885 66.8152C422.883 66.8152 422.881 66.8152 422.879 66.8152C422.877 66.8152 422.876 66.8152 422.874 66.8152C422.872 66.8152 422.87 66.8152 422.868 66.8152C422.866 66.8152 422.864 66.8152 422.862 66.8152C422.861 66.8152 422.859 66.8152 422.857 66.8152C422.855 66.8152 422.853 66.8152 422.851 66.8152C422.849 66.8152 422.847 66.8152 422.846 66.8152C422.844 66.8152 422.842 66.8152 422.84 66.8152C422.838 66.8152 422.836 66.8152 422.834 66.8152C422.832 66.8152 422.83 66.8152 422.829 66.8152C422.827 66.8152 422.825 66.8152 422.823 66.8152C422.821 66.8152 422.819 66.8152 422.817 66.8152C422.815 66.8152 422.814 66.8152 422.812 66.8152C422.81 66.8152 422.808 66.8152 422.806 66.8152C422.804 66.8152 422.802 66.8152 422.8 66.8152C422.798 66.8152 422.797 66.8152 422.795 66.8152C422.793 66.8152 422.791 66.8152 422.789 66.8152C422.787 66.8152 422.785 66.8152 422.783 66.8152C422.781 66.8152 422.78 66.8152 422.778 66.8152C422.776 66.8152 422.774 66.8152 422.772 66.8152C422.77 66.8152 422.768 66.8152 422.766 66.8152C422.764 66.8152 422.763 66.8152 422.761 66.8152C422.759 66.8152 422.757 66.8152 422.755 66.8152C422.753 66.8152 422.751 66.8152 422.749 66.8152C422.747 66.8152 422.746 66.8152 422.744 66.8152C422.742 66.8152 422.74 66.8152 422.738 66.8152C422.736 66.8152 422.734 66.8152 422.732 66.8152C422.73 66.8152 422.729 66.8152 422.727 66.8152C422.725 66.8152 422.723 66.8152 422.721 66.8152C422.719 66.8152 422.717 66.8152 422.715 66.8152C422.713 66.8152 422.711 66.8152 422.71 66.8152C422.708 66.8152 422.706 66.8152 422.704 66.8152C422.702 66.8152 422.7 66.8152 422.698 66.8152C422.696 66.8152 422.694 66.8152 422.693 66.8152C422.691 66.8152 422.689 66.8152 422.687 66.8152C422.685 66.8152 422.683 66.8152 422.681 66.8152C422.679 66.8152 422.677 66.8152 422.675 66.8152C422.674 66.8152 422.672 66.8152 422.67 66.8152C422.668 66.8152 422.666 66.8152 422.664 66.8152C422.662 66.8152 422.66 66.8152 422.658 66.8152C422.656 66.8152 422.655 66.8152 422.653 66.8152C422.651 66.8152 422.649 66.8152 422.647 66.8152C422.645 66.8152 422.643 66.8152 422.641 66.8152C422.639 66.8152 422.637 66.8152 422.635 66.8152C422.634 66.8152 422.632 66.8152 422.63 66.8152C422.628 66.8152 422.626 66.8152 422.624 66.8152C422.622 66.8152 422.62 66.8152 422.618 66.8152C422.616 66.8152 422.615 66.8152 422.613 66.8152C422.611 66.8152 422.609 66.8152 422.607 66.8152C422.605 66.8152 422.603 66.8152 422.601 66.8152C422.599 66.8152 422.597 66.8152 422.595 66.8152C422.594 66.8152 422.592 66.8152 422.59 66.8152C422.588 66.8152 422.586 66.8152 422.584 66.8152C422.582 66.8152 422.58 66.8152 422.578 66.8152C422.576 66.8152 422.574 66.8152 422.573 66.8152C422.571 66.8152 422.569 66.8152 422.567 66.8152C422.565 66.8152 422.563 66.8152 422.561 66.8152C422.559 66.8152 422.557 66.8152 422.555 66.8152C422.553 66.8152 422.552 66.8152 422.55 66.8152C422.548 66.8152 422.546 66.8152 422.544 66.8152C422.542 66.8152 422.54 66.8152 422.538 66.8152C422.536 66.8152 422.534 66.8152 422.532 66.8152C422.53 66.8152 422.529 66.8152 422.527 66.8152C422.525 66.8152 422.523 66.8152 422.521 66.8152C422.519 66.8152 422.517 66.8152 422.515 66.8152C422.513 66.8152 422.511 66.8152 422.509 66.8152C422.507 66.8152 422.506 66.8152 422.504 66.8152C422.502 66.8152 422.5 66.8152 422.498 66.8152C422.496 66.8152 422.494 66.8152 422.492 66.8152C422.49 66.8152 422.488 66.8152 422.486 66.8152C422.484 66.8152 422.482 66.8152 422.481 66.8152C422.479 66.8152 422.477 66.8152 422.475 66.8152C422.473 66.8152 422.471 66.8152 422.469 66.8152C422.467 66.8152 422.465 66.8152 422.463 66.8152C422.461 66.8152 422.459 66.8152 422.457 66.8152C422.456 66.8152 422.454 66.8152 422.452 66.8152C422.45 66.8152 422.448 66.8152 422.446 66.8152C422.444 66.8152 422.442 66.8152 422.44 66.8152C422.438 66.8152 422.436 66.8152 422.434 66.8152C422.432 66.8152 422.431 66.8152 422.429 66.8152C422.427 66.8152 422.425 66.8152 422.423 66.8152C422.421 66.8152 422.419 66.8152 422.417 66.8152C422.415 66.8152 422.413 66.8152 422.411 66.8152C422.409 66.8152 422.407 66.8152 422.405 66.8152C422.404 66.8152 422.402 66.8152 422.4 66.8152C422.398 66.8152 422.396 66.8152 422.394 66.8152C422.392 66.8152 422.39 66.8152 422.388 66.8152C422.386 66.8152 422.384 66.8152 422.382 66.8152C422.38 66.8152 422.378 66.8152 422.376 66.8152C422.375 66.8152 422.373 66.8152 422.371 66.8152C422.369 66.8152 422.367 66.8152 422.365 66.8152C422.363 66.8152 422.361 66.8152 422.359 66.8152C422.357 66.8152 422.355 66.8152 422.353 66.8152C422.351 66.8152 422.349 66.8152 422.347 66.8152C422.345 66.8152 422.344 66.8152 422.342 66.8152C422.34 66.8152 422.338 66.8152 422.336 66.8152C422.334 66.8152 422.332 66.8152 422.33 66.8152C422.328 66.8152 422.326 66.8152 422.324 66.8152C422.322 66.8152 422.32 66.8152 422.318 66.8152C422.316 66.8152 422.314 66.8152 422.313 66.8152C422.311 66.8152 422.309 66.8152 422.307 66.8152C422.305 66.8152 422.303 66.8152 422.301 66.8152C422.299 66.8152 422.297 66.8152 422.295 66.8152C422.293 66.8152 422.291 66.8152 422.289 66.8152C422.287 66.8152 422.285 66.8152 422.283 66.8152C422.281 66.8152 422.28 66.8152 422.278 66.8152C422.276 66.8152 422.274 66.8152 422.272 66.8152C422.27 66.8152 422.268 66.8152 422.266 66.8152C422.264 66.8152 422.262 66.8152 422.26 66.8152C422.258 66.8152 422.256 66.8152 422.254 66.8152C422.252 66.8152 422.25 66.8152 422.248 66.8152C422.246 66.8152 422.244 66.8152 422.243 66.8152C422.241 66.8152 422.239 66.8152 422.237 66.8152C422.235 66.8152 422.233 66.8152 422.231 66.8152C422.229 66.8152 422.227 66.8152 422.225 66.8152C422.223 66.8152 422.221 66.8152 422.219 66.8152C422.217 66.8152 422.215 66.8152 422.213 66.8152C422.211 66.8152 422.209 66.8152 422.207 66.8152C422.205 66.8152 422.204 66.8152 422.202 66.8152C422.2 66.8152 422.198 66.8152 422.196 66.8152C422.194 66.8152 422.192 66.8152 422.19 66.8152C422.188 66.8152 422.186 66.8152 422.184 66.8152C422.182 66.8152 422.18 66.8152 422.178 66.8152C422.176 66.8152 422.174 66.8152 422.172 66.8152C422.17 66.8152 422.168 66.8152 422.166 66.8152C422.164 66.8152 422.162 66.8152 422.161 66.8152C422.159 66.8152 422.157 66.8152 422.155 66.8152C422.153 66.8152 422.151 66.8152 422.149 66.8152C422.147 66.8152 422.145 66.8152 422.143 66.8152C422.141 66.8152 422.139 66.8152 422.137 66.8152C422.135 66.8152 422.133 66.8152 422.131 66.8152C422.129 66.8152 422.127 66.8152 422.125 66.8152C422.123 66.8152 422.121 66.8152 422.119 66.8152C422.117 66.8152 422.115 66.8152 422.113 66.8152C422.112 66.8152 422.11 66.8152 422.108 66.8152C422.106 66.8152 422.104 66.8152 422.102 66.8152C422.1 66.8152 422.098 66.8152 422.096 66.8152C422.094 66.8152 422.092 66.8152 422.09 66.8152C422.088 66.8152 422.086 66.8152 422.084 66.8152C422.082 66.8152 422.08 66.8152 422.078 66.8152C422.076 66.8152 422.074 66.8152 422.072 66.8152C422.07 66.8152 422.068 66.8152 422.066 66.8152C422.064 66.8152 422.062 66.8152 422.06 66.8152C422.058 66.8152 422.056 66.8152 422.055 66.8152C422.053 66.8152 422.051 66.8152 422.049 66.8152C422.047 66.8152 422.045 66.8152 422.043 66.8152C422.041 66.8152 422.039 66.8152 422.037 66.8152C422.035 66.8152 422.033 66.8152 422.031 66.8152C422.029 66.8152 422.027 66.8152 422.025 66.8152C422.023 66.8152 422.021 66.8152 422.019 66.8152C422.017 66.8152 422.015 66.8152 422.013 66.8152C422.011 66.8152 422.009 66.8152 422.007 66.8152C422.005 66.8152 422.003 66.8152 422.001 66.8152C421.999 66.8152 421.997 66.8152 421.995 66.8152C421.993 66.8152 421.991 66.8152 421.989 66.8152C421.987 66.8152 421.985 66.8152 421.983 66.8152C421.982 66.8152 421.98 66.8152 421.978 66.8152C421.976 66.8152 421.974 66.8152 421.972 66.8152C421.97 66.8152 421.968 66.8152 421.966 66.8152C421.964 66.8152 421.962 66.8152 421.96 66.8152C421.958 66.8152 421.956 66.8152 421.954 66.8152C421.952 66.8152 421.95 66.8152 421.948 66.8152C421.946 66.8152 421.944 66.8152 421.942 66.8152C421.94 66.8152 421.938 66.8152 421.936 66.8152C421.934 66.8152 421.932 66.8152 421.93 66.8152C421.928 66.8152 421.926 66.8152 421.924 66.8152C421.922 66.8152 421.92 66.8152 421.918 66.8152C421.916 66.8152 421.914 66.8152 421.912 66.8152C421.91 66.8152 421.908 66.8152 421.906 66.8152C421.904 66.8152 421.902 66.8152 421.9 66.8152C421.898 66.8152 421.896 66.8152 421.894 66.8152C421.892 66.8152 421.89 66.8152 421.888 66.8152C421.886 66.8152 421.884 66.8152 421.882 66.8152C421.88 66.8152 421.878 66.8152 421.876 66.8152C421.874 66.8152 421.872 66.8152 421.87 66.8152C421.868 66.8152 421.866 66.8152 421.864 66.8152C421.862 66.8152 421.861 66.8152 421.859 66.8152C421.857 66.8152 421.855 66.8152 421.853 66.8152C421.851 66.8152 421.849 66.8152 421.847 66.8152V69.636V72.4568C421.849 72.4568 421.851 72.4568 421.853 72.4568C421.855 72.4568 421.857 72.4568 421.859 72.4568C421.861 72.4568 421.862 72.4568 421.864 72.4568C421.866 72.4568 421.868 72.4568 421.87 72.4568C421.872 72.4568 421.874 72.4568 421.876 72.4568C421.878 72.4568 421.88 72.4568 421.882 72.4568C421.884 72.4568 421.886 72.4568 421.888 72.4568C421.89 72.4568 421.892 72.4568 421.894 72.4568C421.896 72.4568 421.898 72.4568 421.9 72.4568C421.902 72.4568 421.904 72.4568 421.906 72.4568C421.908 72.4568 421.91 72.4568 421.912 72.4568C421.914 72.4568 421.916 72.4568 421.918 72.4568C421.92 72.4568 421.922 72.4568 421.924 72.4568C421.926 72.4568 421.928 72.4568 421.93 72.4568C421.932 72.4568 421.934 72.4568 421.936 72.4568C421.938 72.4568 421.94 72.4568 421.942 72.4568C421.944 72.4568 421.946 72.4568 421.948 72.4568C421.95 72.4568 421.952 72.4568 421.954 72.4568C421.956 72.4568 421.958 72.4568 421.96 72.4568C421.962 72.4568 421.964 72.4568 421.966 72.4568C421.968 72.4568 421.97 72.4568 421.972 72.4568C421.974 72.4568 421.976 72.4568 421.978 72.4568C421.98 72.4568 421.982 72.4568 421.983 72.4568C421.985 72.4568 421.987 72.4568 421.989 72.4568C421.991 72.4568 421.993 72.4568 421.995 72.4568C421.997 72.4568 421.999 72.4568 422.001 72.4568C422.003 72.4568 422.005 72.4568 422.007 72.4568C422.009 72.4568 422.011 72.4568 422.013 72.4568C422.015 72.4568 422.017 72.4568 422.019 72.4568C422.021 72.4568 422.023 72.4568 422.025 72.4568C422.027 72.4568 422.029 72.4568 422.031 72.4568C422.033 72.4568 422.035 72.4568 422.037 72.4568C422.039 72.4568 422.041 72.4568 422.043 72.4568C422.045 72.4568 422.047 72.4568 422.049 72.4568C422.051 72.4568 422.053 72.4568 422.055 72.4568C422.056 72.4568 422.058 72.4568 422.06 72.4568C422.062 72.4568 422.064 72.4568 422.066 72.4568C422.068 72.4568 422.07 72.4568 422.072 72.4568C422.074 72.4568 422.076 72.4568 422.078 72.4568C422.08 72.4568 422.082 72.4568 422.084 72.4568C422.086 72.4568 422.088 72.4568 422.09 72.4568C422.092 72.4568 422.094 72.4568 422.096 72.4568C422.098 72.4568 422.1 72.4568 422.102 72.4568C422.104 72.4568 422.106 72.4568 422.108 72.4568C422.11 72.4568 422.112 72.4568 422.113 72.4568C422.115 72.4568 422.117 72.4568 422.119 72.4568C422.121 72.4568 422.123 72.4568 422.125 72.4568C422.127 72.4568 422.129 72.4568 422.131 72.4568C422.133 72.4568 422.135 72.4568 422.137 72.4568C422.139 72.4568 422.141 72.4568 422.143 72.4568C422.145 72.4568 422.147 72.4568 422.149 72.4568C422.151 72.4568 422.153 72.4568 422.155 72.4568C422.157 72.4568 422.159 72.4568 422.161 72.4568C422.162 72.4568 422.164 72.4568 422.166 72.4568C422.168 72.4568 422.17 72.4568 422.172 72.4568C422.174 72.4568 422.176 72.4568 422.178 72.4568C422.18 72.4568 422.182 72.4568 422.184 72.4568C422.186 72.4568 422.188 72.4568 422.19 72.4568C422.192 72.4568 422.194 72.4568 422.196 72.4568C422.198 72.4568 422.2 72.4568 422.202 72.4568C422.204 72.4568 422.205 72.4568 422.207 72.4568C422.209 72.4568 422.211 72.4568 422.213 72.4568C422.215 72.4568 422.217 72.4568 422.219 72.4568C422.221 72.4568 422.223 72.4568 422.225 72.4568C422.227 72.4568 422.229 72.4568 422.231 72.4568C422.233 72.4568 422.235 72.4568 422.237 72.4568C422.239 72.4568 422.241 72.4568 422.243 72.4568C422.244 72.4568 422.246 72.4568 422.248 72.4568C422.25 72.4568 422.252 72.4568 422.254 72.4568C422.256 72.4568 422.258 72.4568 422.26 72.4568C422.262 72.4568 422.264 72.4568 422.266 72.4568C422.268 72.4568 422.27 72.4568 422.272 72.4568C422.274 72.4568 422.276 72.4568 422.278 72.4568C422.28 72.4568 422.281 72.4568 422.283 72.4568C422.285 72.4568 422.287 72.4568 422.289 72.4568C422.291 72.4568 422.293 72.4568 422.295 72.4568C422.297 72.4568 422.299 72.4568 422.301 72.4568C422.303 72.4568 422.305 72.4568 422.307 72.4568C422.309 72.4568 422.311 72.4568 422.313 72.4568C422.314 72.4568 422.316 72.4568 422.318 72.4568C422.32 72.4568 422.322 72.4568 422.324 72.4568C422.326 72.4568 422.328 72.4568 422.33 72.4568C422.332 72.4568 422.334 72.4568 422.336 72.4568C422.338 72.4568 422.34 72.4568 422.342 72.4568C422.344 72.4568 422.345 72.4568 422.347 72.4568C422.349 72.4568 422.351 72.4568 422.353 72.4568C422.355 72.4568 422.357 72.4568 422.359 72.4568C422.361 72.4568 422.363 72.4568 422.365 72.4568C422.367 72.4568 422.369 72.4568 422.371 72.4568C422.373 72.4568 422.375 72.4568 422.376 72.4568C422.378 72.4568 422.38 72.4568 422.382 72.4568C422.384 72.4568 422.386 72.4568 422.388 72.4568C422.39 72.4568 422.392 72.4568 422.394 72.4568C422.396 72.4568 422.398 72.4568 422.4 72.4568C422.402 72.4568 422.404 72.4568 422.405 72.4568C422.407 72.4568 422.409 72.4568 422.411 72.4568C422.413 72.4568 422.415 72.4568 422.417 72.4568C422.419 72.4568 422.421 72.4568 422.423 72.4568C422.425 72.4568 422.427 72.4568 422.429 72.4568C422.431 72.4568 422.432 72.4568 422.434 72.4568C422.436 72.4568 422.438 72.4568 422.44 72.4568C422.442 72.4568 422.444 72.4568 422.446 72.4568C422.448 72.4568 422.45 72.4568 422.452 72.4568C422.454 72.4568 422.456 72.4568 422.457 72.4568C422.459 72.4568 422.461 72.4568 422.463 72.4568C422.465 72.4568 422.467 72.4568 422.469 72.4568C422.471 72.4568 422.473 72.4568 422.475 72.4568C422.477 72.4568 422.479 72.4568 422.481 72.4568C422.482 72.4568 422.484 72.4568 422.486 72.4568C422.488 72.4568 422.49 72.4568 422.492 72.4568C422.494 72.4568 422.496 72.4568 422.498 72.4568C422.5 72.4568 422.502 72.4568 422.504 72.4568C422.506 72.4568 422.507 72.4568 422.509 72.4568C422.511 72.4568 422.513 72.4568 422.515 72.4568C422.517 72.4568 422.519 72.4568 422.521 72.4568C422.523 72.4568 422.525 72.4568 422.527 72.4568C422.529 72.4568 422.53 72.4568 422.532 72.4568C422.534 72.4568 422.536 72.4568 422.538 72.4568C422.54 72.4568 422.542 72.4568 422.544 72.4568C422.546 72.4568 422.548 72.4568 422.55 72.4568C422.552 72.4568 422.553 72.4568 422.555 72.4568C422.557 72.4568 422.559 72.4568 422.561 72.4568C422.563 72.4568 422.565 72.4568 422.567 72.4568C422.569 72.4568 422.571 72.4568 422.573 72.4568C422.574 72.4568 422.576 72.4568 422.578 72.4568C422.58 72.4568 422.582 72.4568 422.584 72.4568C422.586 72.4568 422.588 72.4568 422.59 72.4568C422.592 72.4568 422.594 72.4568 422.595 72.4568C422.597 72.4568 422.599 72.4568 422.601 72.4568C422.603 72.4568 422.605 72.4568 422.607 72.4568C422.609 72.4568 422.611 72.4568 422.613 72.4568C422.615 72.4568 422.616 72.4568 422.618 72.4568C422.62 72.4568 422.622 72.4568 422.624 72.4568C422.626 72.4568 422.628 72.4568 422.63 72.4568C422.632 72.4568 422.634 72.4568 422.635 72.4568C422.637 72.4568 422.639 72.4568 422.641 72.4568C422.643 72.4568 422.645 72.4568 422.647 72.4568C422.649 72.4568 422.651 72.4568 422.653 72.4568C422.655 72.4568 422.656 72.4568 422.658 72.4568C422.66 72.4568 422.662 72.4568 422.664 72.4568C422.666 72.4568 422.668 72.4568 422.67 72.4568C422.672 72.4568 422.674 72.4568 422.675 72.4568C422.677 72.4568 422.679 72.4568 422.681 72.4568C422.683 72.4568 422.685 72.4568 422.687 72.4568C422.689 72.4568 422.691 72.4568 422.693 72.4568C422.694 72.4568 422.696 72.4568 422.698 72.4568C422.7 72.4568 422.702 72.4568 422.704 72.4568C422.706 72.4568 422.708 72.4568 422.71 72.4568C422.711 72.4568 422.713 72.4568 422.715 72.4568C422.717 72.4568 422.719 72.4568 422.721 72.4568C422.723 72.4568 422.725 72.4568 422.727 72.4568C422.729 72.4568 422.73 72.4568 422.732 72.4568C422.734 72.4568 422.736 72.4568 422.738 72.4568C422.74 72.4568 422.742 72.4568 422.744 72.4568C422.746 72.4568 422.747 72.4568 422.749 72.4568C422.751 72.4568 422.753 72.4568 422.755 72.4568C422.757 72.4568 422.759 72.4568 422.761 72.4568C422.763 72.4568 422.764 72.4568 422.766 72.4568C422.768 72.4568 422.77 72.4568 422.772 72.4568C422.774 72.4568 422.776 72.4568 422.778 72.4568C422.78 72.4568 422.781 72.4568 422.783 72.4568C422.785 72.4568 422.787 72.4568 422.789 72.4568C422.791 72.4568 422.793 72.4568 422.795 72.4568C422.797 72.4568 422.798 72.4568 422.8 72.4568C422.802 72.4568 422.804 72.4568 422.806 72.4568C422.808 72.4568 422.81 72.4568 422.812 72.4568C422.814 72.4568 422.815 72.4568 422.817 72.4568C422.819 72.4568 422.821 72.4568 422.823 72.4568C422.825 72.4568 422.827 72.4568 422.829 72.4568C422.83 72.4568 422.832 72.4568 422.834 72.4568C422.836 72.4568 422.838 72.4568 422.84 72.4568C422.842 72.4568 422.844 72.4568 422.846 72.4568C422.847 72.4568 422.849 72.4568 422.851 72.4568C422.853 72.4568 422.855 72.4568 422.857 72.4568C422.859 72.4568 422.861 72.4568 422.862 72.4568C422.864 72.4568 422.866 72.4568 422.868 72.4568C422.87 72.4568 422.872 72.4568 422.874 72.4568C422.876 72.4568 422.877 72.4568 422.879 72.4568C422.881 72.4568 422.883 72.4568 422.885 72.4568C422.887 72.4568 422.889 72.4568 422.891 72.4568C422.892 72.4568 422.894 72.4568 422.896 72.4568C422.898 72.4568 422.9 72.4568 422.902 72.4568C422.904 72.4568 422.906 72.4568 422.907 72.4568C422.909 72.4568 422.911 72.4568 422.913 72.4568C422.915 72.4568 422.917 72.4568 422.919 72.4568C422.921 72.4568 422.922 72.4568 422.924 72.4568C422.926 72.4568 422.928 72.4568 422.93 72.4568C422.932 72.4568 422.934 72.4568 422.936 72.4568C422.937 72.4568 422.939 72.4568 422.941 72.4568C422.943 72.4568 422.945 72.4568 422.947 72.4568C422.949 72.4568 422.951 72.4568 422.952 72.4568C422.954 72.4568 422.956 72.4568 422.958 72.4568C422.96 72.4568 422.962 72.4568 422.964 72.4568C422.965 72.4568 422.967 72.4568 422.969 72.4568C422.971 72.4568 422.973 72.4568 422.975 72.4568C422.977 72.4568 422.978 72.4568 422.98 72.4568C422.982 72.4568 422.984 72.4568 422.986 72.4568C422.988 72.4568 422.99 72.4568 422.992 72.4568C422.993 72.4568 422.995 72.4568 422.997 72.4568C422.999 72.4568 423.001 72.4568 423.003 72.4568C423.005 72.4568 423.006 72.4568 423.008 72.4568C423.01 72.4568 423.012 72.4568 423.014 72.4568C423.016 72.4568 423.018 72.4568 423.019 72.4568C423.021 72.4568 423.023 72.4568 423.025 72.4568C423.027 72.4568 423.029 72.4568 423.031 72.4568C423.032 72.4568 423.034 72.4568 423.036 72.4568C423.038 72.4568 423.04 72.4568 423.042 72.4568C423.044 72.4568 423.045 72.4568 423.047 72.4568C423.049 72.4568 423.051 72.4568 423.053 72.4568C423.055 72.4568 423.057 72.4568 423.058 72.4568C423.06 72.4568 423.062 72.4568 423.064 72.4568C423.066 72.4568 423.068 72.4568 423.07 72.4568C423.071 72.4568 423.073 72.4568 423.075 72.4568C423.077 72.4568 423.079 72.4568 423.081 72.4568C423.083 72.4568 423.084 72.4568 423.086 72.4568C423.088 72.4568 423.09 72.4568 423.092 72.4568C423.094 72.4568 423.096 72.4568 423.097 72.4568C423.099 72.4568 423.101 72.4568 423.103 72.4568C423.105 72.4568 423.107 72.4568 423.108 72.4568C423.11 72.4568 423.112 72.4568 423.114 72.4568C423.116 72.4568 423.118 72.4568 423.12 72.4568C423.121 72.4568 423.123 72.4568 423.125 72.4568C423.127 72.4568 423.129 72.4568 423.131 72.4568C423.133 72.4568 423.134 72.4568 423.136 72.4568C423.138 72.4568 423.14 72.4568 423.142 72.4568C423.144 72.4568 423.145 72.4568 423.147 72.4568C423.149 72.4568 423.151 72.4568 423.153 72.4568C423.155 72.4568 423.157 72.4568 423.158 72.4568C423.16 72.4568 423.162 72.4568 423.164 72.4568C423.166 72.4568 423.168 72.4568 423.169 72.4568C423.171 72.4568 423.173 72.4568 423.175 72.4568C423.177 72.4568 423.179 72.4568 423.18 72.4568C423.182 72.4568 423.184 72.4568 423.186 72.4568C423.188 72.4568 423.19 72.4568 423.192 72.4568C423.193 72.4568 423.195 72.4568 423.197 72.4568C423.199 72.4568 423.201 72.4568 423.203 72.4568C423.204 72.4568 423.206 72.4568 423.208 72.4568C423.21 72.4568 423.212 72.4568 423.214 72.4568C423.215 72.4568 423.217 72.4568 423.219 72.4568C423.221 72.4568 423.223 72.4568 423.225 72.4568C423.226 72.4568 423.228 72.4568 423.23 72.4568C423.232 72.4568 423.234 72.4568 423.236 72.4568C423.237 72.4568 423.239 72.4568 423.241 72.4568C423.243 72.4568 423.245 72.4568 423.247 72.4568C423.248 72.4568 423.25 72.4568 423.252 72.4568C423.254 72.4568 423.256 72.4568 423.258 72.4568C423.259 72.4568 423.261 72.4568 423.263 72.4568C423.265 72.4568 423.267 72.4568 423.269 72.4568C423.27 72.4568 423.272 72.4568 423.274 72.4568C423.276 72.4568 423.278 72.4568 423.28 72.4568C423.281 72.4568 423.283 72.4568 423.285 72.4568C423.287 72.4568 423.289 72.4568 423.291 72.4568C423.292 72.4568 423.294 72.4568 423.296 72.4568C423.298 72.4568 423.3 72.4568 423.302 72.4568C423.303 72.4568 423.305 72.4568 423.307 72.4568C423.309 72.4568 423.311 72.4568 423.312 72.4568C423.314 72.4568 423.316 72.4568 423.318 72.4568C423.32 72.4568 423.322 72.4568 423.323 72.4568C423.325 72.4568 423.327 72.4568 423.329 72.4568C423.331 72.4568 423.333 72.4568 423.334 72.4568C423.336 72.4568 423.338 72.4568 423.34 72.4568C423.342 72.4568 423.344 72.4568 423.345 72.4568C423.347 72.4568 423.349 72.4568 423.351 72.4568C423.353 72.4568 423.354 72.4568 423.356 72.4568C423.358 72.4568 423.36 72.4568 423.362 72.4568C423.364 72.4568 423.365 72.4568 423.367 72.4568C423.369 72.4568 423.371 72.4568 423.373 72.4568C423.374 72.4568 423.376 72.4568 423.378 72.4568C423.38 72.4568 423.382 72.4568 423.384 72.4568C423.385 72.4568 423.387 72.4568 423.389 72.4568C423.391 72.4568 423.393 72.4568 423.394 72.4568C423.396 72.4568 423.398 72.4568 423.4 72.4568C423.402 72.4568 423.404 72.4568 423.405 72.4568C423.407 72.4568 423.409 72.4568 423.411 72.4568C423.413 72.4568 423.414 72.4568 423.416 72.4568C423.418 72.4568 423.42 72.4568 423.422 72.4568C423.423 72.4568 423.425 72.4568 423.427 72.4568C423.429 72.4568 423.431 72.4568 423.433 72.4568C423.434 72.4568 423.436 72.4568 423.438 72.4568C423.44 72.4568 423.442 72.4568 423.443 72.4568C423.445 72.4568 423.447 72.4568 423.449 72.4568C423.451 72.4568 423.452 72.4568 423.454 72.4568C423.456 72.4568 423.458 72.4568 423.46 72.4568C423.461 72.4568 423.463 72.4568 423.465 72.4568C423.467 72.4568 423.469 72.4568 423.471 72.4568C423.472 72.4568 423.474 72.4568 423.476 72.4568C423.478 72.4568 423.48 72.4568 423.481 72.4568C423.483 72.4568 423.485 72.4568 423.487 72.4568C423.489 72.4568 423.49 72.4568 423.492 72.4568C423.494 72.4568 423.496 72.4568 423.498 72.4568C423.499 72.4568 423.501 72.4568 423.503 72.4568C423.505 72.4568 423.507 72.4568 423.508 72.4568C423.51 72.4568 423.512 72.4568 423.514 72.4568C423.516 72.4568 423.517 72.4568 423.519 72.4568C423.521 72.4568 423.523 72.4568 423.525 72.4568C423.526 72.4568 423.528 72.4568 423.53 72.4568C423.532 72.4568 423.534 72.4568 423.535 72.4568C423.537 72.4568 423.539 72.4568 423.541 72.4568C423.543 72.4568 423.544 72.4568 423.546 72.4568C423.548 72.4568 423.55 72.4568 423.552 72.4568C423.553 72.4568 423.555 72.4568 423.557 72.4568C423.559 72.4568 423.561 72.4568 423.562 72.4568C423.564 72.4568 423.566 72.4568 423.568 72.4568C423.57 72.4568 423.571 72.4568 423.573 72.4568C423.575 72.4568 423.577 72.4568 423.579 72.4568C423.58 72.4568 423.582 72.4568 423.584 72.4568C423.586 72.4568 423.588 72.4568 423.589 72.4568C423.591 72.4568 423.593 72.4568 423.595 72.4568C423.596 72.4568 423.598 72.4568 423.6 72.4568C423.602 72.4568 423.604 72.4568 423.605 72.4568C423.607 72.4568 423.609 72.4568 423.611 72.4568C423.613 72.4568 423.614 72.4568 423.616 72.4568C423.618 72.4568 423.62 72.4568 423.622 72.4568C423.623 72.4568 423.625 72.4568 423.627 72.4568C423.629 72.4568 423.63 72.4568 423.632 72.4568C423.634 72.4568 423.636 72.4568 423.638 72.4568C423.639 72.4568 423.641 72.4568 423.643 72.4568C423.645 72.4568 423.647 72.4568 423.648 72.4568C423.65 72.4568 423.652 72.4568 423.654 72.4568C423.655 72.4568 423.657 72.4568 423.659 72.4568C423.661 72.4568 423.663 72.4568 423.664 72.4568C423.666 72.4568 423.668 72.4568 423.67 72.4568C423.672 72.4568 423.673 72.4568 423.675 72.4568C423.677 72.4568 423.679 72.4568 423.68 72.4568C423.682 72.4568 423.684 72.4568 423.686 72.4568C423.688 72.4568 423.689 72.4568 423.691 72.4568C423.693 72.4568 423.695 72.4568 423.696 72.4568C423.698 72.4568 423.7 72.4568 423.702 72.4568C423.704 72.4568 423.705 72.4568 423.707 72.4568C423.709 72.4568 423.711 72.4568 423.712 72.4568C423.714 72.4568 423.716 72.4568 423.718 72.4568C423.72 72.4568 423.721 72.4568 423.723 72.4568C423.725 72.4568 423.727 72.4568 423.728 72.4568C423.73 72.4568 423.732 72.4568 423.734 72.4568C423.736 72.4568 423.737 72.4568 423.739 72.4568C423.741 72.4568 423.743 72.4568 423.744 72.4568C423.746 72.4568 423.748 72.4568 423.75 72.4568C423.752 72.4568 423.753 72.4568 423.755 72.4568C423.757 72.4568 423.759 72.4568 423.76 72.4568C423.762 72.4568 423.764 72.4568 423.766 72.4568C423.767 72.4568 423.769 72.4568 423.771 72.4568C423.773 72.4568 423.775 72.4568 423.776 72.4568C423.778 72.4568 423.78 72.4568 423.782 72.4568C423.783 72.4568 423.785 72.4568 423.787 72.4568C423.789 72.4568 423.79 72.4568 423.792 72.4568C423.794 72.4568 423.796 72.4568 423.798 72.4568C423.799 72.4568 423.801 72.4568 423.803 72.4568C423.805 72.4568 423.806 72.4568 423.808 72.4568C423.81 72.4568 423.812 72.4568 423.813 72.4568C423.815 72.4568 423.817 72.4568 423.819 72.4568C423.821 72.4568 423.822 72.4568 423.824 72.4568C423.826 72.4568 423.828 72.4568 423.829 72.4568C423.831 72.4568 423.833 72.4568 423.835 72.4568C423.836 72.4568 423.838 72.4568 423.84 72.4568C423.842 72.4568 423.843 72.4568 423.845 72.4568C423.847 72.4568 423.849 72.4568 423.85 72.4568C423.852 72.4568 423.854 72.4568 423.856 72.4568C423.858 72.4568 423.859 72.4568 423.861 72.4568C423.863 72.4568 423.865 72.4568 423.866 72.4568C423.868 72.4568 423.87 72.4568 423.872 72.4568C423.873 72.4568 423.875 72.4568 423.877 72.4568C423.879 72.4568 423.88 72.4568 423.882 72.4568C423.884 72.4568 423.886 72.4568 423.887 72.4568C423.889 72.4568 423.891 72.4568 423.893 72.4568C423.894 72.4568 423.896 72.4568 423.898 72.4568C423.9 72.4568 423.901 72.4568 423.903 72.4568C423.905 72.4568 423.907 72.4568 423.908 72.4568C423.91 72.4568 423.912 72.4568 423.914 72.4568C423.915 72.4568 423.917 72.4568 423.919 72.4568C423.921 72.4568 423.923 72.4568 423.924 72.4568C423.926 72.4568 423.928 72.4568 423.93 72.4568C423.931 72.4568 423.933 72.4568 423.935 72.4568C423.937 72.4568 423.938 72.4568 423.94 72.4568C423.942 72.4568 423.944 72.4568 423.945 72.4568C423.947 72.4568 423.949 72.4568 423.951 72.4568C423.952 72.4568 423.954 72.4568 423.956 72.4568C423.958 72.4568 423.959 72.4568 423.961 72.4568C423.963 72.4568 423.965 72.4568 423.966 72.4568C423.968 72.4568 423.97 72.4568 423.971 72.4568C423.973 72.4568 423.975 72.4568 423.977 72.4568C423.978 72.4568 423.98 72.4568 423.982 72.4568C423.984 72.4568 423.985 72.4568 423.987 72.4568C423.989 72.4568 423.991 72.4568 423.992 72.4568C423.994 72.4568 423.996 72.4568 423.998 72.4568C423.999 72.4568 424.001 72.4568 424.003 72.4568C424.005 72.4568 424.006 72.4568 424.008 72.4568C424.01 72.4568 424.012 72.4568 424.013 72.4568C424.015 72.4568 424.017 72.4568 424.019 72.4568C424.02 72.4568 424.022 72.4568 424.024 72.4568C424.026 72.4568 424.027 72.4568 424.029 72.4568C424.031 72.4568 424.032 72.4568 424.034 72.4568C424.036 72.4568 424.038 72.4568 424.039 72.4568C424.041 72.4568 424.043 72.4568 424.045 72.4568C424.046 72.4568 424.048 72.4568 424.05 72.4568C424.052 72.4568 424.053 72.4568 424.055 72.4568C424.057 72.4568 424.059 72.4568 424.06 72.4568C424.062 72.4568 424.064 72.4568 424.065 72.4568C424.067 72.4568 424.069 72.4568 424.071 72.4568C424.072 72.4568 424.074 72.4568 424.076 72.4568C424.078 72.4568 424.079 72.4568 424.081 72.4568C424.083 72.4568 424.085 72.4568 424.086 72.4568C424.088 72.4568 424.09 72.4568 424.091 72.4568C424.093 72.4568 424.095 72.4568 424.097 72.4568C424.098 72.4568 424.1 72.4568 424.102 72.4568C424.104 72.4568 424.105 72.4568 424.107 72.4568C424.109 72.4568 424.11 72.4568 424.112 72.4568C424.114 72.4568 424.116 72.4568 424.117 72.4568C424.119 72.4568 424.121 72.4568 424.123 72.4568C424.124 72.4568 424.126 72.4568 424.128 72.4568C424.129 72.4568 424.131 72.4568 424.133 72.4568C424.135 72.4568 424.136 72.4568 424.138 72.4568C424.14 72.4568 424.142 72.4568 424.143 72.4568C424.145 72.4568 424.147 72.4568 424.148 72.4568C424.15 72.4568 424.152 72.4568 424.154 72.4568C424.155 72.4568 424.157 72.4568 424.159 72.4568C424.161 72.4568 424.162 72.4568 424.164 72.4568C424.166 72.4568 424.167 72.4568 424.169 72.4568C424.171 72.4568 424.173 72.4568 424.174 72.4568C424.176 72.4568 424.178 72.4568 424.179 72.4568C424.181 72.4568 424.183 72.4568 424.185 72.4568C424.186 72.4568 424.188 72.4568 424.19 72.4568C424.191 72.4568 424.193 72.4568 424.195 72.4568C424.197 72.4568 424.198 72.4568 424.2 72.4568C424.202 72.4568 424.204 72.4568 424.205 72.4568C424.207 72.4568 424.209 72.4568 424.21 72.4568C424.212 72.4568 424.214 72.4568 424.216 72.4568C424.217 72.4568 424.219 72.4568 424.221 72.4568C424.222 72.4568 424.224 72.4568 424.226 72.4568C424.228 72.4568 424.229 72.4568 424.231 72.4568C424.233 72.4568 424.234 72.4568 424.236 72.4568C424.238 72.4568 424.24 72.4568 424.241 72.4568C424.243 72.4568 424.245 72.4568 424.246 72.4568C424.248 72.4568 424.25 72.4568 424.251 72.4568C424.253 72.4568 424.255 72.4568 424.257 72.4568C424.258 72.4568 424.26 72.4568 424.262 72.4568C424.263 72.4568 424.265 72.4568 424.267 72.4568C424.269 72.4568 424.27 72.4568 424.272 72.4568C424.274 72.4568 424.275 72.4568 424.277 72.4568C424.279 72.4568 424.281 72.4568 424.282 72.4568C424.284 72.4568 424.286 72.4568 424.287 72.4568C424.289 72.4568 424.291 72.4568 424.293 72.4568C424.294 72.4568 424.296 72.4568 424.298 72.4568C424.299 72.4568 424.301 72.4568 424.303 72.4568C424.304 72.4568 424.306 72.4568 424.308 72.4568C424.31 72.4568 424.311 72.4568 424.313 72.4568C424.315 72.4568 424.316 72.4568 424.318 72.4568C424.32 72.4568 424.321 72.4568 424.323 72.4568C424.325 72.4568 424.327 72.4568 424.328 72.4568C424.33 72.4568 424.332 72.4568 424.333 72.4568C424.335 72.4568 424.337 72.4568 424.339 72.4568C424.34 72.4568 424.342 72.4568 424.344 72.4568C424.345 72.4568 424.347 72.4568 424.349 72.4568C424.35 72.4568 424.352 72.4568 424.354 72.4568C424.355 72.4568 424.357 72.4568 424.359 72.4568C424.361 72.4568 424.362 72.4568 424.364 72.4568C424.366 72.4568 424.367 72.4568 424.369 72.4568C424.371 72.4568 424.372 72.4568 424.374 72.4568C424.376 72.4568 424.378 72.4568 424.379 72.4568C424.381 72.4568 424.383 72.4568 424.384 72.4568C424.386 72.4568 424.388 72.4568 424.389 72.4568C424.391 72.4568 424.393 72.4568 424.394 72.4568C424.396 72.4568 424.398 72.4568 424.4 72.4568C424.401 72.4568 424.403 72.4568 424.405 72.4568C424.406 72.4568 424.408 72.4568 424.41 72.4568C424.411 72.4568 424.413 72.4568 424.415 72.4568C424.416 72.4568 424.418 72.4568 424.42 72.4568C424.422 72.4568 424.423 72.4568 424.425 72.4568C424.427 72.4568 424.428 72.4568 424.43 72.4568C424.432 72.4568 424.433 72.4568 424.435 72.4568C424.437 72.4568 424.438 72.4568 424.44 72.4568C424.442 72.4568 424.443 72.4568 424.445 72.4568C424.447 72.4568 424.449 72.4568 424.45 72.4568C424.452 72.4568 424.454 72.4568 424.455 72.4568C424.457 72.4568 424.459 72.4568 424.46 72.4568C424.462 72.4568 424.464 72.4568 424.465 72.4568C424.467 72.4568 424.469 72.4568 424.47 72.4568C424.472 72.4568 424.474 72.4568 424.475 72.4568C424.477 72.4568 424.479 72.4568 424.481 72.4568C424.482 72.4568 424.484 72.4568 424.486 72.4568C424.487 72.4568 424.489 72.4568 424.491 72.4568C424.492 72.4568 424.494 72.4568 424.496 72.4568C424.497 72.4568 424.499 72.4568 424.501 72.4568C424.502 72.4568 424.504 72.4568 424.506 72.4568C424.507 72.4568 424.509 72.4568 424.511 72.4568C424.512 72.4568 424.514 72.4568 424.516 72.4568C424.517 72.4568 424.519 72.4568 424.521 72.4568C424.522 72.4568 424.524 72.4568 424.526 72.4568C424.528 72.4568 424.529 72.4568 424.531 72.4568C424.533 72.4568 424.534 72.4568 424.536 72.4568C424.538 72.4568 424.539 72.4568 424.541 72.4568C424.543 72.4568 424.544 72.4568 424.546 72.4568C424.548 72.4568 424.549 72.4568 424.551 72.4568C424.553 72.4568 424.554 72.4568 424.556 72.4568C424.558 72.4568 424.559 72.4568 424.561 72.4568C424.563 72.4568 424.564 72.4568 424.566 72.4568C424.568 72.4568 424.569 72.4568 424.571 72.4568C424.573 72.4568 424.574 72.4568 424.576 72.4568C424.578 72.4568 424.579 72.4568 424.581 72.4568C424.583 72.4568 424.584 72.4568 424.586 72.4568C424.588 72.4568 424.589 72.4568 424.591 72.4568C424.593 72.4568 424.594 72.4568 424.596 72.4568C424.598 72.4568 424.599 72.4568 424.601 72.4568C424.603 72.4568 424.604 72.4568 424.606 72.4568C424.608 72.4568 424.609 72.4568 424.611 72.4568C424.613 72.4568 424.614 72.4568 424.616 72.4568C424.618 72.4568 424.619 72.4568 424.621 72.4568C424.623 72.4568 424.624 72.4568 424.626 72.4568C424.628 72.4568 424.629 72.4568 424.631 72.4568C424.633 72.4568 424.634 72.4568 424.636 72.4568C424.638 72.4568 424.639 72.4568 424.641 72.4568C424.643 72.4568 424.644 72.4568 424.646 72.4568C424.648 72.4568 424.649 72.4568 424.651 72.4568V69.636ZM421.847 69.636V66.8152H405.53V69.636V72.4568H421.847V69.636ZM405.53 69.636H402.709V106.73H405.53H408.351V69.636H405.53ZM405.53 106.73V103.91H390.361V106.73V109.551H405.53V106.73ZM481.129 106.73L478.485 105.749L477.074 109.551H481.129V106.73ZM510.83 26.6779L508.207 25.6408L508.196 25.6686L508.186 25.6967L510.83 26.6779ZM517.076 18.6471L518.571 21.0391L518.598 21.0226L518.624 21.0054L517.076 18.6471ZM535.815 18.5196L534.32 20.9116L534.336 20.9219L534.353 20.932L535.815 18.5196ZM542.061 26.5504L544.705 25.5669L544.705 25.5667L542.061 26.5504ZM571.889 106.73V109.551H575.948L574.533 105.747L571.889 106.73ZM555.191 106.73L552.527 107.658L553.186 109.551H555.191V106.73ZM548.307 86.9723L550.971 86.0442L550.311 84.1515H548.307V86.9723ZM504.202 86.9723V84.1515H502.222L501.549 86.0138L504.202 86.9723ZM497.063 106.73V109.551H499.043L499.716 107.689L497.063 106.73ZM508.791 73.4602L506.137 72.5027L504.774 76.281H508.791V73.4602ZM543.718 73.4602V76.281H547.666L546.387 72.5462L543.718 73.4602ZM529.441 31.7768L532.11 30.8627L532.087 30.7953L532.06 30.7291L529.441 31.7768ZM528.166 29.8647L526.172 31.8593L526.262 31.9497L526.361 32.0316L528.166 29.8647ZM524.852 29.9921L526.847 31.9867L526.937 31.8962L527.019 31.798L524.852 29.9921ZM523.832 31.7768L526.486 32.7342L526.497 32.7016L526.508 32.6688L523.832 31.7768ZM481.129 106.73L483.774 107.712L513.475 27.6591L510.83 26.6779L508.186 25.6967L478.485 105.749L481.129 106.73ZM510.83 26.6779L513.453 27.7149C514.727 24.4925 516.469 22.3529 518.571 21.0391L517.076 18.6471L515.581 16.2551C512.245 18.3405 509.822 21.5548 508.207 25.6408L510.83 26.6779ZM517.076 18.6471L518.624 21.0054C520.851 19.5443 523.406 18.791 526.382 18.791V15.9702V13.1494C522.389 13.1494 518.741 14.1807 515.529 16.2888L517.076 18.6471ZM526.382 15.9702V18.791C529.484 18.791 532.098 19.5232 534.32 20.9116L535.815 18.5196L537.31 16.1276C534.093 14.1168 530.418 13.1494 526.382 13.1494V15.9702ZM535.815 18.5196L534.353 20.932C536.516 22.2428 538.236 24.3587 539.417 27.5341L542.061 26.5504L544.705 25.5667C543.167 21.4336 540.723 18.1957 537.277 16.1073L535.815 18.5196ZM542.061 26.5504L539.417 27.5339L569.246 107.714L571.889 106.73L574.533 105.747L544.705 25.5669L542.061 26.5504ZM571.889 106.73V103.91H555.191V106.73V109.551H571.889V106.73ZM555.191 106.73L557.854 105.802L550.971 86.0442L548.307 86.9723L545.643 87.9003L552.527 107.658L555.191 106.73ZM548.307 86.9723V84.1515H504.202V86.9723V89.793H548.307V86.9723ZM504.202 86.9723L501.549 86.0138L494.41 105.772L497.063 106.73L499.716 107.689L506.855 87.9307L504.202 86.9723ZM497.063 106.73V103.91H481.129V106.73V109.551H497.063V106.73ZM508.791 73.4602V76.281H543.718V73.4602V70.6394H508.791V73.4602ZM543.718 73.4602L546.387 72.5462L532.11 30.8627L529.441 31.7768L526.773 32.6908L541.049 74.3742L543.718 73.4602ZM529.441 31.7768L532.06 30.7291C531.609 29.6011 530.952 28.5145 529.972 27.6977L528.166 29.8647L526.361 32.0316C526.4 32.0647 526.594 32.2528 526.822 32.8244L529.441 31.7768ZM528.166 29.8647L530.161 27.8701C529.136 26.845 527.83 26.4065 526.509 26.4065V29.2273V32.0481C526.554 32.0481 526.512 32.0545 526.421 32.0194C526.323 31.9817 526.234 31.9215 526.172 31.8593L528.166 29.8647ZM526.509 29.2273V26.4065C525.016 26.4065 523.661 27.0155 522.685 28.1863L524.852 29.9921L527.019 31.798C526.988 31.8351 526.905 31.9161 526.767 31.9797C526.631 32.0424 526.529 32.0481 526.509 32.0481V29.2273ZM524.852 29.9921L522.858 27.9976C522.036 28.8193 521.505 29.8399 521.156 30.8847L523.832 31.7768L526.508 32.6688C526.67 32.184 526.819 32.0148 526.847 31.9867L524.852 29.9921ZM523.832 31.7768L521.179 30.8193L506.137 72.5027L508.791 73.4602L511.444 74.4177L526.486 32.7342L523.832 31.7768Z" fill="white" mask="url(#path-2-outside-1_427_176)"/>
</svg>
